<svg width="32" height="21" viewBox="0 0 32 21" fill="none" xmlns="http://www.w3.org/2000/svg">
<path d="M28.9443 20.9998H3.05871C2.87511 20.9998 2.69903 20.922 2.56921 20.7835C2.43939 20.645 2.36645 20.4571 2.36645 20.2612V19.1054C2.36722 18.91 2.44049 18.7229 2.57023 18.5851C2.69997 18.4472 2.87561 18.3698 3.05871 18.3698H3.42945V18.1535H2.01598C1.83239 18.1535 1.65631 18.0757 1.52649 17.9372C1.39667 17.7986 1.32373 17.6108 1.32373 17.4149V5.71422C1.32373 5.61722 1.34164 5.52117 1.37643 5.43155C1.41121 5.34194 1.46221 5.26051 1.52649 5.19192C1.59077 5.12334 1.66708 5.06893 1.75107 5.03181C1.83506 4.99469 1.92507 4.97559 2.01598 4.97559H29.987C30.0779 4.97559 30.1679 4.99469 30.2519 5.03181C30.3359 5.06893 30.4122 5.12334 30.4765 5.19192C30.5408 5.26051 30.5918 5.34194 30.6266 5.43155C30.6614 5.52117 30.6793 5.61722 30.6793 5.71422V17.4025C30.6793 17.5984 30.6063 17.7863 30.4765 17.9248C30.3467 18.0633 30.1706 18.1411 29.987 18.1411H28.5735V18.3575H28.9443C29.1274 18.3575 29.303 18.4349 29.4328 18.5727C29.5625 18.7106 29.6358 18.8976 29.6365 19.093V20.2489C29.6381 20.3469 29.6213 20.4443 29.5872 20.5353C29.5531 20.6264 29.5024 20.7092 29.4379 20.7792C29.3735 20.8491 29.2967 20.9046 29.2119 20.9425C29.1272 20.9803 29.0362 20.9999 28.9443 20.9998ZM3.05871 18.8828C3.00313 18.8828 2.94978 18.9062 2.91021 18.9478C2.87064 18.9895 2.84803 19.0461 2.84727 19.1054V20.2612C2.84727 20.321 2.86954 20.3784 2.90919 20.4207C2.94885 20.463 3.00263 20.4868 3.05871 20.4868H28.9443C29.0004 20.4868 29.0542 20.463 29.0938 20.4207C29.1335 20.3784 29.1557 20.321 29.1557 20.2612V19.1054C29.155 19.0461 29.1324 18.9895 29.0928 18.9478C29.0532 18.9062 28.9999 18.8828 28.9443 18.8828H28.3331C28.2694 18.8828 28.2082 18.8558 28.1631 18.8077C28.1181 18.7596 28.0927 18.6944 28.0927 18.6263V17.897C28.0927 17.8289 28.1181 17.7637 28.1631 17.7156C28.2082 17.6675 28.2694 17.6405 28.3331 17.6405H29.987C30.0431 17.6405 30.0969 17.6167 30.1365 17.5744C30.1762 17.5321 30.1985 17.4747 30.1985 17.4149V5.71422C30.1985 5.65438 30.1762 5.597 30.1365 5.55469C30.0969 5.51238 30.0431 5.48861 29.987 5.48861H2.01598C1.9599 5.48861 1.90613 5.51238 1.86647 5.55469C1.82682 5.597 1.80454 5.65438 1.80454 5.71422V17.4025C1.80454 17.4623 1.82682 17.5197 1.86647 17.562C1.90613 17.6043 1.9599 17.6281 2.01598 17.6281H3.66986C3.73362 17.6281 3.79477 17.6551 3.83985 17.7032C3.88494 17.7513 3.91026 17.8166 3.91026 17.8846V18.6387C3.91026 18.7067 3.88494 18.772 3.83985 18.8201C3.79477 18.8682 3.73362 18.8952 3.66986 18.8952L3.05871 18.8828Z" fill="#8A9C1E"/>
<path d="M31.3106 4.5894H0.692254C0.508657 4.5894 0.33258 4.51158 0.202757 4.37306C0.0729349 4.23454 0 4.04667 0 3.85077V2.41986C0 2.22397 0.0729349 2.0361 0.202757 1.89758C0.33258 1.75906 0.508657 1.68123 0.692254 1.68123H3.61477V1.22075C3.61477 1.02485 3.68771 0.836979 3.81753 0.698459C3.94735 0.559939 4.12343 0.48212 4.30702 0.48212H5.10355C5.15228 0.340447 5.24067 0.218196 5.35674 0.131951C5.4728 0.045705 5.61092 -0.000360514 5.75236 2.12473e-06H9.17886C9.32029 -0.000360514 9.45841 0.045705 9.57447 0.131951C9.69054 0.218196 9.77893 0.340447 9.82766 0.48212H11.105C11.2886 0.48212 11.4647 0.559939 11.5945 0.698459C11.7243 0.836979 11.7972 1.02485 11.7972 1.22075V1.68123H20.2114V1.22075C20.2122 1.0251 20.2854 0.837704 20.415 0.69936C20.5447 0.561015 20.7203 0.482933 20.9037 0.48212H21.9406C21.9897 0.340697 22.0782 0.218694 22.1942 0.132507C22.3102 0.0463205 22.4481 8.09856e-05 22.5894 2.12473e-06H26.0188C26.1601 0.000517327 26.2978 0.046928 26.4137 0.133057C26.5296 0.219185 26.6182 0.340944 26.6676 0.48212H27.7017C27.8853 0.48212 28.0613 0.559939 28.1912 0.698459C28.321 0.836979 28.3939 1.02485 28.3939 1.22075V1.68123H31.3106C31.4937 1.68205 31.6691 1.76023 31.7983 1.89866C31.9275 2.0371 32 2.2245 32 2.41986V3.85077C32 4.04613 31.9275 4.23354 31.7983 4.37197C31.6691 4.5104 31.4937 4.58858 31.3106 4.5894ZM0.692254 2.19426C0.636176 2.19426 0.582395 2.21803 0.542742 2.26034C0.503089 2.30265 0.480812 2.36003 0.480812 2.41986V3.85077C0.480812 3.8804 0.48628 3.90973 0.496906 3.9371C0.507532 3.96448 0.523108 3.98935 0.542742 4.0103C0.562376 4.03125 0.585684 4.04786 0.611337 4.0592C0.63699 4.07054 0.664487 4.07637 0.692254 4.07637H31.3106C31.3384 4.07637 31.3659 4.07054 31.3916 4.0592C31.4172 4.04786 31.4405 4.03125 31.4602 4.0103C31.4798 3.98935 31.4954 3.96448 31.506 3.9371C31.5166 3.90973 31.5221 3.8804 31.5221 3.85077V2.41986C31.5221 2.36003 31.4998 2.30265 31.4602 2.26034C31.4205 2.21803 31.3667 2.19426 31.3106 2.19426H28.1535C28.0898 2.19426 28.0286 2.16723 27.9835 2.11913C27.9384 2.07102 27.9131 2.00578 27.9131 1.93775V1.22075C27.9131 1.16092 27.8908 1.10353 27.8512 1.06122C27.8115 1.01891 27.7577 0.995145 27.7017 0.995145H26.4678C26.404 0.995145 26.3429 0.968119 26.2978 0.920013C26.2527 0.871908 26.2274 0.806663 26.2274 0.738632C26.2274 0.679329 26.2055 0.622408 26.1665 0.580186C26.1274 0.537964 26.0744 0.513837 26.0188 0.513024H22.5894C22.5333 0.513024 22.4796 0.536794 22.4399 0.579104C22.4003 0.621413 22.378 0.678798 22.378 0.738632C22.378 0.806663 22.3527 0.871908 22.3076 0.920013C22.2625 0.968119 22.2013 0.995145 22.1376 0.995145H20.9037C20.8481 0.995957 20.7951 1.02008 20.7561 1.06231C20.717 1.10453 20.6951 1.16145 20.6951 1.22075V1.95011C20.6951 2.01814 20.6698 2.08338 20.6247 2.13149C20.5797 2.1796 20.5185 2.20662 20.4547 2.20662H11.551C11.4873 2.20662 11.4261 2.1796 11.3811 2.13149C11.336 2.08338 11.3106 2.01814 11.3106 1.95011V1.22075C11.3106 1.16092 11.2884 1.10353 11.2487 1.06122C11.2091 1.01891 11.1553 0.995145 11.0992 0.995145H9.62491C9.56115 0.995145 9.5 0.968119 9.45492 0.920013C9.40983 0.871908 9.3845 0.806663 9.3845 0.738632C9.3845 0.678798 9.36223 0.621413 9.32258 0.579104C9.28292 0.536794 9.22914 0.513024 9.17306 0.513024H5.74656C5.69048 0.513024 5.6367 0.536794 5.59705 0.579104C5.5574 0.621413 5.53512 0.678798 5.53512 0.738632C5.53512 0.806663 5.50979 0.871908 5.46471 0.920013C5.41962 0.968119 5.35848 0.995145 5.29472 0.995145H4.30123C4.24515 0.995145 4.19137 1.01891 4.15172 1.06122C4.11207 1.10353 4.08979 1.16092 4.08979 1.22075V1.95011C4.08979 2.01814 4.06446 2.08338 4.01938 2.13149C3.97429 2.1796 3.91314 2.20662 3.84938 2.20662L0.692254 2.19426Z" fill="#8A9C1E"/>
<path d="M8.63142 8.49617H5.23388C5.1743 8.48921 5.11923 8.45902 5.07922 8.4114C5.03921 8.36377 5.01709 8.30207 5.01709 8.23812C5.01709 8.17416 5.03921 8.11246 5.07922 8.06484C5.11923 8.01722 5.1743 7.98703 5.23388 7.98006H8.63142C8.66541 7.97609 8.69979 7.9798 8.73234 7.99095C8.76489 8.00211 8.79487 8.02046 8.82033 8.04481C8.84578 8.06916 8.86615 8.09896 8.88008 8.13226C8.89402 8.16557 8.90123 8.20164 8.90123 8.23812C8.90123 8.2746 8.89402 8.31066 8.88008 8.34397C8.86615 8.37728 8.84578 8.40708 8.82033 8.43143C8.79487 8.45577 8.76489 8.47412 8.73234 8.48528C8.69979 8.49644 8.66541 8.50015 8.63142 8.49617Z" fill="#8A9C1E"/>
<path d="M26.7691 8.49561H23.3716C23.312 8.48864 23.2569 8.45845 23.2169 8.41083C23.1769 8.3632 23.1548 8.3015 23.1548 8.23755C23.1548 8.1736 23.1769 8.11189 23.2169 8.06427C23.2569 8.01665 23.312 7.98646 23.3716 7.97949H26.7691C26.8287 7.98646 26.8838 8.01665 26.9238 8.06427C26.9638 8.11189 26.9859 8.1736 26.9859 8.23755C26.9859 8.3015 26.9638 8.3632 26.9238 8.41083C26.8838 8.45845 26.8287 8.48864 26.7691 8.49561Z" fill="#8A9C1E"/>
<path d="M25.0685 10.2938C25.0048 10.2938 24.9436 10.2668 24.8985 10.2187C24.8535 10.1706 24.8281 10.1053 24.8281 10.0373V6.42448C24.8281 6.35645 24.8535 6.29121 24.8985 6.2431C24.9436 6.19499 25.0048 6.16797 25.0685 6.16797C25.1323 6.16797 25.1934 6.19499 25.2385 6.2431C25.2836 6.29121 25.3089 6.35645 25.3089 6.42448V10.0496C25.306 10.1155 25.2793 10.1776 25.2346 10.2231C25.1898 10.2685 25.1303 10.2939 25.0685 10.2938Z" fill="#8A9C1E"/>
<path d="M17.0978 14.5313C17.0663 14.5314 17.0351 14.5246 17.0062 14.5113C16.9773 14.498 16.9513 14.4785 16.9298 14.454L15.4816 12.9087C15.4373 12.8598 15.4126 12.7944 15.4126 12.7264C15.4126 12.6584 15.4373 12.593 15.4816 12.5441L16.533 11.4253L14.7314 9.503C14.6864 9.45464 14.6614 9.38922 14.6616 9.32111C14.6619 9.25301 14.6875 9.18782 14.7328 9.13987C14.7782 9.09192 14.8395 9.06514 14.9033 9.06543C14.9671 9.06572 15.0282 9.09305 15.0732 9.14141L17.0428 11.243C17.087 11.2919 17.1117 11.3573 17.1117 11.4253C17.1117 11.4933 17.087 11.5587 17.0428 11.6076L15.9913 12.7264L17.2658 14.0862C17.3105 14.1343 17.3356 14.1993 17.3356 14.267C17.3356 14.3348 17.3105 14.3998 17.2658 14.4478C17.2448 14.4734 17.219 14.4941 17.1901 14.5085C17.1611 14.5229 17.1297 14.5306 17.0978 14.5313Z" fill="#8A9C1E"/>
</svg>
