<svg width="32" height="31" viewBox="0 0 32 31" fill="none" xmlns="http://www.w3.org/2000/svg">
<path d="M5.37149 28.8748L6.65871 30.1233C6.68162 30.1452 6.69981 30.1713 6.71222 30.2C6.72464 30.2288 6.73103 30.2597 6.73103 30.2909C6.73103 30.3221 6.72464 30.353 6.71222 30.3818C6.69981 30.4106 6.68162 30.4367 6.65871 30.4586L6.17325 30.933C6.12671 30.9761 6.06479 31.0002 6.00039 31.0002C5.93599 31.0002 5.87407 30.9761 5.82753 30.933L4.53664 29.681C4.49213 29.6358 4.46729 29.5758 4.46729 29.5133C4.46729 29.4509 4.49213 29.3908 4.53664 29.3457L5.02578 28.8748C5.04837 28.8526 5.07528 28.835 5.10495 28.8229C5.13462 28.8109 5.16647 28.8047 5.19864 28.8047C5.23081 28.8047 5.26265 28.8109 5.29232 28.8229C5.322 28.835 5.34891 28.8526 5.37149 28.8748ZM6.14382 30.3016L5.19864 29.3849L5.05521 29.524L6.00039 30.4407L6.14382 30.3016Z" fill="#8A9C1E"/>
<path d="M0.903197 24.5337L2.1941 25.7857C2.21689 25.8073 2.23501 25.8331 2.24738 25.8616C2.25974 25.8901 2.26611 25.9207 2.26611 25.9516C2.26611 25.9825 2.25974 26.0131 2.24738 26.0416C2.23501 26.07 2.21689 26.0958 2.1941 26.1174L1.70495 26.5918C1.68268 26.614 1.65609 26.6315 1.62672 26.6435C1.59735 26.6555 1.5658 26.6617 1.53394 26.6617C1.50207 26.6617 1.47052 26.6555 1.44116 26.6435C1.41179 26.6315 1.38518 26.614 1.36292 26.5918L0.0720223 25.3398C0.0492251 25.3182 0.0311088 25.2925 0.0187407 25.264C0.00637261 25.2355 0 25.2049 0 25.174C0 25.1431 0.00637261 25.1125 0.0187407 25.084C0.0311088 25.0555 0.0492251 25.0297 0.0720223 25.0081L0.561164 24.5337C0.58343 24.5116 0.610032 24.494 0.639401 24.482C0.66877 24.47 0.700315 24.4639 0.732182 24.4639C0.764049 24.4639 0.795593 24.47 0.824962 24.482C0.854331 24.494 0.88093 24.5116 0.903197 24.5337ZM1.67921 25.9605L0.730341 25.0438L0.586908 25.1829L1.53577 26.0996L1.67921 25.9605Z" fill="#8A9C1E"/>
<path d="M17.8832 10.5582L21.0645 13.6436C21.0874 13.6655 21.1056 13.6916 21.118 13.7204C21.1304 13.7492 21.1368 13.7801 21.1368 13.8113C21.1368 13.8425 21.1304 13.8734 21.118 13.9021C21.1056 13.9309 21.0874 13.957 21.0645 13.9789L12.8631 21.9332C12.9693 22.5244 12.9421 23.131 12.7834 23.7111C12.6247 24.2911 12.3382 24.8309 11.9436 25.2933C11.9339 25.3254 11.9162 25.3548 11.8921 25.3789L6.94922 30.1871C6.92695 30.2092 6.90035 30.2268 6.87099 30.2388C6.84162 30.2508 6.81007 30.257 6.7782 30.257C6.74634 30.257 6.71479 30.2508 6.68542 30.2388C6.65605 30.2268 6.62946 30.2092 6.60719 30.1871L5.31629 28.9351C5.29349 28.9135 5.27538 28.8877 5.26301 28.8592C5.25064 28.8307 5.24427 28.8001 5.24427 28.7692C5.24427 28.7383 5.25064 28.7077 5.26301 28.6793C5.27538 28.6508 5.29349 28.625 5.31629 28.6034L7.34274 26.6344C6.67857 26.4301 6.07452 26.0745 5.58118 25.5972C5.08784 25.12 4.71956 24.5351 4.50718 23.8914L2.40349 25.9317C2.38091 25.954 2.354 25.9716 2.32432 25.9836C2.29465 25.9957 2.2628 26.0019 2.23064 26.0019C2.19847 26.0019 2.16663 25.9957 2.13695 25.9836C2.10728 25.9716 2.08036 25.954 2.05778 25.9317L0.770562 24.6833C0.747655 24.6614 0.729466 24.6353 0.71705 24.6065C0.704635 24.5777 0.698242 24.5469 0.698242 24.5157C0.698242 24.4845 0.704635 24.4536 0.71705 24.4248C0.729466 24.396 0.747655 24.3699 0.770562 24.348L5.47811 19.7538L5.54799 19.6789C5.57318 19.6533 5.60022 19.6294 5.6289 19.6075L5.70246 19.5398C5.71452 19.526 5.72959 19.5151 5.74659 19.5077C6.22959 19.0936 6.80185 18.7893 7.4216 18.6171C8.04135 18.445 8.69292 18.4092 9.32874 18.5125L17.5302 10.5582C17.5529 10.5349 17.5802 10.5163 17.6106 10.5036C17.6409 10.4909 17.6736 10.4844 17.7067 10.4844C17.7398 10.4844 17.7725 10.4909 17.8028 10.5036C17.8332 10.5163 17.8605 10.5349 17.8832 10.5582ZM20.5496 13.8113L17.7104 11.0576L9.58986 18.9334C9.56204 18.9618 9.52705 18.9827 9.48834 18.994C9.44963 19.0052 9.40855 19.0065 9.36919 18.9976C8.78453 18.8861 8.18114 18.908 7.60669 19.0615C7.03223 19.215 6.50246 19.496 6.0592 19.8822H6.03713L5.96358 19.9464C5.94469 19.96 5.92742 19.9755 5.91209 19.9928L5.8606 20.0463L5.81646 20.0962L1.2781 24.4978L2.22328 25.4145L4.45937 23.2494C4.48926 23.2184 4.52756 23.1963 4.56987 23.1856C4.61217 23.1749 4.65674 23.176 4.69842 23.1888C4.74084 23.2005 4.77909 23.2233 4.80895 23.2548C4.83881 23.2863 4.85911 23.3251 4.8676 23.3671C5.02511 24.0777 5.39121 24.7288 5.92175 25.2421C6.45229 25.7554 7.12461 26.1089 7.85763 26.2599C7.90052 26.2689 7.94014 26.2889 7.9724 26.3178C8.00467 26.3466 8.02839 26.3833 8.04114 26.424C8.05389 26.4648 8.05519 26.508 8.04491 26.5494C8.03463 26.5908 8.01315 26.6288 7.98267 26.6594L5.82382 28.7496L6.77269 29.6699L11.4986 25.0828C11.5087 25.0637 11.5211 25.0457 11.5354 25.0293C11.9136 24.6018 12.1858 24.096 12.3312 23.5507C12.4765 23.0053 12.4911 22.4349 12.3739 21.8833C12.3651 21.8451 12.3666 21.8053 12.3782 21.7679C12.3898 21.7304 12.4111 21.6964 12.4401 21.6692L20.5496 13.8113ZM17.1109 14.168L17.3389 14.3891C17.5671 14.6105 17.6953 14.9107 17.6953 15.2238C17.6953 15.5368 17.5671 15.837 17.3389 16.0584L14.1393 19.1617C13.911 19.383 13.6014 19.5073 13.2787 19.5073C12.9559 19.5073 12.6463 19.383 12.4181 19.1617L12.19 18.9405C11.9619 18.7191 11.8337 18.4189 11.8337 18.1059C11.8337 17.7928 11.9619 17.4926 12.19 17.2712L15.3897 14.168C15.6185 13.9471 15.9283 13.8234 16.2511 13.8241C16.5738 13.8248 16.8831 13.9498 17.1109 14.1715V14.168ZM12.7638 18.8264C12.9014 18.9582 13.0871 19.0321 13.2805 19.0321C13.4739 19.0321 13.6596 18.9582 13.7972 18.8264L16.9969 15.7267C17.1339 15.5931 17.2108 15.4122 17.2108 15.2238C17.2108 15.0353 17.1339 14.8545 16.9969 14.7208L16.7689 14.5032C16.6312 14.3715 16.4456 14.2976 16.2521 14.2976C16.0587 14.2976 15.8731 14.3715 15.7354 14.5032L12.5358 17.6029C12.3988 17.7366 12.3219 17.9174 12.3219 18.1059C12.3219 18.2943 12.3988 18.4751 12.5358 18.6088L12.7638 18.8264ZM10.3585 20.938C10.7038 21.2734 10.9389 21.7005 11.034 22.1654C11.129 22.6302 11.0799 23.112 10.8927 23.5498C10.7056 23.9876 10.3888 24.3618 9.98246 24.625C9.5761 24.8883 9.0984 25.0288 8.60973 25.0288C8.12107 25.0288 7.64337 24.8883 7.23701 24.625C6.83065 24.3618 6.51388 23.9876 6.32672 23.5498C6.13956 23.112 6.09042 22.6302 6.18551 22.1654C6.2806 21.7005 6.51565 21.2734 6.86095 20.938C7.32598 20.49 7.95503 20.2389 8.61049 20.2395C9.26595 20.2402 9.89446 20.4926 10.3585 20.9416V20.938ZM7.20299 23.9985C7.4808 24.2677 7.83467 24.451 8.21987 24.5251C8.60507 24.5993 9.00431 24.5611 9.3671 24.4153C9.7299 24.2694 10.04 24.0225 10.2581 23.7058C10.4763 23.3891 10.5927 23.0168 10.5927 22.6359C10.5927 22.255 10.4763 21.8827 10.2581 21.5659C10.04 21.2492 9.7299 21.0023 9.3671 20.8565C9.00431 20.7107 8.60507 20.6724 8.21987 20.7466C7.83467 20.8208 7.4808 21.0041 7.20299 21.2733C6.83085 21.6357 6.6219 22.1262 6.6219 22.6377C6.6219 23.1491 6.83085 23.6397 7.20299 24.002V23.9985Z" fill="#8A9C1E"/>
<path d="M19.215 2.62206L29.3068 12.4062C29.3297 12.4281 29.3479 12.4542 29.3603 12.483C29.3727 12.5118 29.3791 12.5426 29.3791 12.5738C29.3791 12.605 29.3727 12.6359 29.3603 12.6647C29.3479 12.6935 29.3297 12.7196 29.3068 12.7415L26.7323 15.2383C26.7058 15.2644 26.6734 15.2841 26.6376 15.2958C26.6019 15.3076 26.5638 15.3111 26.5264 15.3061C26.4887 15.3008 26.4528 15.287 26.4216 15.266C26.3903 15.245 26.3645 15.2172 26.3462 15.1848L26.0703 14.714L25.5039 15.2633C25.1691 15.5859 24.7163 15.7669 24.2443 15.7669C23.7723 15.7669 23.3195 15.5859 22.9847 15.2633L16.2176 8.69657C15.8841 8.37226 15.6968 7.93293 15.6968 7.47489C15.6968 7.01686 15.8841 6.57751 16.2176 6.25321L16.7803 5.70747L16.3647 5.47562C16.3323 5.45798 16.3045 5.43338 16.2835 5.4037C16.2624 5.37401 16.2487 5.34005 16.2433 5.30441C16.2375 5.26812 16.2409 5.231 16.253 5.19623C16.2652 5.16146 16.2858 5.13004 16.3132 5.10465L18.8876 2.60779C18.9338 2.56929 18.9934 2.54934 19.0542 2.55199C19.115 2.55464 19.1725 2.5797 19.215 2.62206ZM28.7772 12.5738L19.0311 3.12143L16.8612 5.22594L17.2768 5.46135C17.3081 5.48069 17.3348 5.50629 17.355 5.53643C17.3753 5.56657 17.3888 5.60056 17.3945 5.63613C17.3982 5.6718 17.394 5.70782 17.3819 5.74171C17.3698 5.7756 17.3503 5.80652 17.3246 5.83231L16.5375 6.59564C16.4161 6.71237 16.3197 6.85127 16.254 7.00432C16.1882 7.15738 16.1543 7.32156 16.1543 7.48738C16.1543 7.65319 16.1882 7.81736 16.254 7.97042C16.3197 8.12347 16.4161 8.26238 16.5375 8.37911L23.3083 14.9459C23.4287 15.0636 23.5719 15.1571 23.7297 15.2209C23.8875 15.2847 24.0568 15.3175 24.2278 15.3175C24.3987 15.3175 24.568 15.2847 24.7258 15.2209C24.8836 15.1571 25.0268 15.0636 25.1472 14.9459L25.9379 14.1825C25.9633 14.1571 25.9945 14.1377 26.029 14.1259C26.0634 14.1141 26.1003 14.1103 26.1365 14.1148C26.1739 14.1179 26.21 14.13 26.2414 14.1499C26.2728 14.1698 26.2987 14.197 26.3167 14.2289L26.6036 14.7033L28.7772 12.5738Z" fill="#8A9C1E"/>
<path d="M21.4805 0.478453L31.5135 10.2091C31.5534 10.2488 31.578 10.3005 31.5834 10.3556C31.5887 10.4108 31.5744 10.4661 31.5429 10.5123C31.4493 10.6405 31.3434 10.76 31.2266 10.8689L30.7669 11.3113C30.7446 11.3334 30.718 11.3509 30.6887 11.3629C30.6593 11.3749 30.6278 11.3811 30.5959 11.3811C30.564 11.3811 30.5325 11.3749 30.5031 11.3629C30.4737 11.3509 30.4471 11.3334 30.4249 11.3113L20.3331 1.52712C20.3102 1.50522 20.292 1.47913 20.2796 1.45035C20.2671 1.42157 20.2607 1.39067 20.2607 1.35948C20.2607 1.32828 20.2671 1.2974 20.2796 1.26862C20.292 1.23984 20.3102 1.21374 20.3331 1.19184L20.8001 0.742403C20.9124 0.631218 21.0356 0.530874 21.1679 0.442781C21.2164 0.413096 21.2738 0.400442 21.3307 0.406935C21.3876 0.413428 21.4405 0.438676 21.4805 0.478453ZM31.0207 10.3981L21.293 0.959981L21.1532 1.08483L20.859 1.37019L30.6051 10.8226L30.8919 10.5444C30.9376 10.4979 30.9806 10.4491 31.0207 10.3981Z" fill="#8A9C1E"/>
<path d="M28.1299 3.70986C29.3382 4.88171 30.4545 6.13959 31.4693 7.47298C31.7446 7.83655 31.9198 8.26218 31.9784 8.70966C32.0369 9.15715 31.9769 9.61174 31.804 10.0305C31.788 10.0656 31.7637 10.0964 31.733 10.1206C31.7023 10.1448 31.6661 10.1616 31.6275 10.1696C31.5881 10.1785 31.547 10.1772 31.5083 10.166C31.4696 10.1547 31.4346 10.1338 31.4068 10.1054L21.5835 0.581643C21.5558 0.553565 21.5354 0.519543 21.5239 0.482346C21.5124 0.44515 21.5101 0.405833 21.5173 0.367624C21.5243 0.329143 21.5416 0.293117 21.5674 0.263092C21.5932 0.233066 21.6266 0.210084 21.6644 0.196418C22.0978 0.0243899 22.5696 -0.0361211 23.0342 0.0207488C23.4988 0.0776188 23.9403 0.249942 24.3161 0.521011C25.6662 1.49181 26.941 2.55764 28.1299 3.70986ZM31.4656 9.499C31.537 9.1997 31.5411 8.889 31.4776 8.58803C31.4142 8.28706 31.2847 8.00287 31.0979 7.75477C29.1102 5.14282 26.7329 2.83229 24.0439 0.899106C23.7874 0.713529 23.4927 0.583707 23.1798 0.518464C22.8669 0.453221 22.5432 0.454089 22.2308 0.521011L31.4656 9.499Z" fill="#8A9C1E"/>
<path d="M20.3329 1.53761L30.4248 11.3217C30.4477 11.3437 30.4658 11.3697 30.4783 11.3985C30.4907 11.4273 30.4971 11.4582 30.4971 11.4894C30.4971 11.5206 30.4907 11.5515 30.4783 11.5803C30.4658 11.609 30.4477 11.6351 30.4248 11.657L29.6487 12.4061C29.6265 12.4282 29.5999 12.4458 29.5705 12.4578C29.5411 12.4698 29.5096 12.4759 29.4777 12.4759C29.4459 12.4759 29.4143 12.4698 29.3849 12.4578C29.3556 12.4458 29.329 12.4282 29.3067 12.4061L19.2149 2.62197C19.192 2.60007 19.1738 2.57397 19.1614 2.54519C19.149 2.51641 19.1426 2.48552 19.1426 2.45432C19.1426 2.42312 19.149 2.39224 19.1614 2.36346C19.1738 2.33468 19.192 2.30858 19.2149 2.28667L19.9909 1.53761C20.0132 1.5155 20.0398 1.49794 20.0691 1.48594C20.0985 1.47395 20.1301 1.46777 20.1619 1.46777C20.1938 1.46777 20.2253 1.47395 20.2547 1.48594C20.2841 1.49794 20.3107 1.5155 20.3329 1.53761ZM29.8952 11.4894L20.1491 2.037L19.7188 2.45432L29.4649 11.9067L29.8952 11.4894Z" fill="#8A9C1E"/>
</svg>
