<svg width="132" height="20" viewBox="0 0 132 20" fill="none" xmlns="http://www.w3.org/2000/svg">
<path d="M10.0003 1.66602L12.5753 6.88268L18.3337 7.72435L14.167 11.7827L15.1503 17.516L10.0003 14.8077L4.85033 17.516L5.83366 11.7827L1.66699 7.72435L7.42533 6.88268L10.0003 1.66602Z" fill="#DFFF00"/>
<path d="M38.0003 1.66602L40.5753 6.88268L46.3337 7.72435L42.167 11.7827L43.1503 17.516L38.0003 14.8077L32.8503 17.516L33.8337 11.7827L29.667 7.72435L35.4253 6.88268L38.0003 1.66602Z" fill="#DFFF00"/>
<path d="M66.0003 1.66602L68.5753 6.88268L74.3337 7.72435L70.167 11.7827L71.1503 17.516L66.0003 14.8077L60.8503 17.516L61.8337 11.7827L57.667 7.72435L63.4253 6.88268L66.0003 1.66602Z" fill="#DFFF00"/>
<path d="M94.0003 1.66602L96.5753 6.88268L102.334 7.72435L98.167 11.7827L99.1503 17.516L94.0003 14.8077L88.8503 17.516L89.8337 11.7827L85.667 7.72435L91.4253 6.88268L94.0003 1.66602Z" fill="#DFFF00"/>
<path d="M122 1.66602L124.575 6.88268L130.334 7.72435L126.167 11.7827L127.15 17.516L122 14.8077L116.85 17.516L117.834 11.7827L113.667 7.72435L119.425 6.88268L122 1.66602Z" fill="#DFFF00"/>
</svg>
