<svg width="32" height="33" viewBox="0 0 32 33" fill="none" xmlns="http://www.w3.org/2000/svg">
<path d="M16.0034 32.5C12.8386 32.5007 9.74469 31.5628 7.11299 29.8049C4.48129 28.0471 2.43001 25.5483 1.21858 22.6245C0.00716279 19.7007 -0.309979 16.4834 0.307277 13.3794C0.924533 10.2754 2.44846 7.42414 4.6863 5.1863C6.92414 2.94846 9.77538 1.42453 12.8794 0.807278C15.9834 0.190022 19.2007 0.507161 22.1245 1.71858C25.0483 2.93 27.5471 4.98129 29.3049 7.61299C31.0628 10.2447 32.0007 13.3386 32 16.5034C31.9946 20.7443 30.3076 24.81 27.3088 27.8088C24.31 30.8076 20.2443 32.4946 16.0034 32.5ZM16.0034 1.1323C12.9633 1.1323 9.99143 2.03379 7.46367 3.72279C4.93591 5.41179 2.96576 7.81243 1.80235 10.6211C0.638953 13.4298 0.334551 16.5204 0.927648 19.5021C1.52074 22.4838 2.9847 25.2227 5.13439 27.3724C7.28407 29.5221 10.0229 30.986 13.0046 31.5791C15.9863 32.1722 19.0769 31.8678 21.8856 30.7044C24.6943 29.541 27.095 27.5709 28.784 25.0431C30.473 22.5153 31.3745 19.5435 31.3745 16.5034C31.3718 12.4269 29.7517 8.51809 26.8698 5.63496C23.988 2.75183 20.0798 1.13001 16.0034 1.12553V1.1323ZM16.0034 28.7333C13.5845 28.7333 11.22 28.016 9.20881 26.6722C7.19761 25.3284 5.63007 23.4183 4.70442 21.1836C3.77876 18.9488 3.53657 16.4898 4.00846 14.1174C4.48036 11.7451 5.64515 9.56591 7.35553 7.85552C9.06592 6.14514 11.2451 4.98035 13.6174 4.50846C15.9898 4.03656 18.4488 4.27876 20.6836 5.20441C22.9183 6.13006 24.8284 7.6976 26.1722 9.7088C27.516 11.72 28.2333 14.0845 28.2333 16.5034C28.228 19.7447 26.9375 22.8516 24.6449 25.1429C22.3523 27.4342 19.2447 28.723 16.0034 28.7265V28.7333ZM16.0034 4.89899C13.7081 4.89832 11.4642 5.57834 9.55542 6.85304C7.64664 8.12774 6.15874 9.93987 5.27991 12.0602C4.40109 14.1806 4.1708 16.514 4.61817 18.7652C5.06555 21.0165 6.1705 23.0845 7.79327 24.7077C9.41604 26.331 11.4837 27.4365 13.7349 27.8846C15.986 28.3326 18.3194 28.103 20.44 27.2248C22.5607 26.3466 24.3732 24.8592 25.6485 22.9508C26.9237 21.0424 27.6044 18.7987 27.6044 16.5034C27.6026 13.4262 26.3801 10.4755 24.2052 8.29862C22.0303 6.12178 19.0805 4.89671 16.0034 4.89223V4.89899Z" fill="#8A9C1E"/>
<path d="M16.8249 17.9606C16.6603 18.1252 16.4507 18.2374 16.2224 18.2828C15.9941 18.3283 15.7575 18.305 15.5425 18.216C15.3274 18.1269 15.1436 17.9761 15.0143 17.7826C14.8849 17.5891 14.8159 17.3616 14.8159 17.1288C14.8159 16.8961 14.8849 16.6685 15.0143 16.475C15.1436 16.2815 15.3274 16.1307 15.5425 16.0416C15.7575 15.9526 15.9941 15.9294 16.2224 15.9748C16.4507 16.0203 16.6603 16.1324 16.8249 16.297C17.0446 16.5181 17.1679 16.8171 17.1679 17.1288C17.1679 17.4405 17.0446 17.7395 16.8249 17.9606Z" fill="#8A9C1E"/>
<path d="M16.2502 17.1758C16.2093 17.176 16.1688 17.168 16.1311 17.1523C16.0934 17.1366 16.0591 17.1136 16.0304 17.0845C16.0005 17.0555 15.9768 17.0209 15.9606 16.9825C15.9444 16.9442 15.936 16.903 15.936 16.8614C15.936 16.8198 15.9444 16.7786 15.9606 16.7402C15.9768 16.7019 16.0005 16.6672 16.0304 16.6382L19.1411 13.5275C19.2002 13.47 19.2795 13.4381 19.3619 13.4385C19.4444 13.4389 19.5233 13.4717 19.5818 13.5297C19.6403 13.5878 19.6737 13.6665 19.6748 13.7489C19.6758 13.8314 19.6445 13.9109 19.5875 13.9704L16.4733 17.0845C16.444 17.1137 16.4091 17.1368 16.3708 17.1524C16.3326 17.1681 16.2916 17.176 16.2502 17.1758Z" fill="#8A9C1E"/>
<path d="M9.4302 23.2016C9.38903 23.2025 9.34811 23.1951 9.3098 23.18C9.27149 23.165 9.23656 23.1424 9.20704 23.1137C7.8589 21.7811 6.93215 20.0816 6.542 18.2266C6.15185 16.3716 6.31551 14.4428 7.01262 12.68C7.70973 10.9172 8.90956 9.39822 10.4629 8.31179C12.0163 7.22536 13.8548 6.61943 15.7497 6.56934H16.0067C17.8905 6.57084 19.7328 7.12252 21.3074 8.15662C22.882 9.19072 24.1203 10.6622 24.8702 12.3903C25.62 14.1184 25.8488 16.028 25.5284 17.8843C25.208 19.7407 24.3524 21.463 23.0667 22.8398C23.0098 22.9008 22.9309 22.9367 22.8475 22.9395C22.7642 22.9424 22.6831 22.912 22.6221 22.855C22.5611 22.7981 22.5252 22.7193 22.5224 22.6359C22.5195 22.5525 22.5499 22.4714 22.6069 22.4104C23.8197 21.1119 24.6228 19.4848 24.916 17.7324C25.2092 15.98 24.9793 14.18 24.2551 12.5575C23.531 10.935 22.3446 9.56193 20.8444 8.60994C19.3442 7.65794 17.5967 7.16925 15.8203 7.20494C14.0439 7.24064 12.3174 7.79914 10.8566 8.81063C9.39585 9.82212 8.26563 11.2417 7.60723 12.892C6.94883 14.5423 6.79146 16.35 7.15478 18.0893C7.5181 19.8285 8.38599 21.4221 9.64998 22.6708C9.70841 22.7297 9.7412 22.8093 9.7412 22.8922C9.7412 22.9752 9.70841 23.0548 9.64998 23.1137C9.5897 23.1685 9.51166 23.1998 9.4302 23.2016Z" fill="#8A9C1E"/>
<path d="M16.0032 9.72722C15.9617 9.72767 15.9207 9.71985 15.8823 9.70421C15.8439 9.68856 15.8091 9.66542 15.7798 9.63613C15.7505 9.60684 15.7274 9.57199 15.7117 9.53364C15.6961 9.49528 15.6882 9.45419 15.6887 9.41277V6.88022C15.6841 6.83642 15.6888 6.79214 15.7025 6.75027C15.7161 6.70839 15.7384 6.66985 15.7679 6.63713C15.7974 6.60442 15.8334 6.57826 15.8736 6.56036C15.9139 6.54246 15.9574 6.5332 16.0015 6.5332C16.0455 6.5332 16.0891 6.54246 16.1293 6.56036C16.1695 6.57826 16.2056 6.60442 16.2351 6.63713C16.2645 6.66985 16.2868 6.70839 16.3005 6.75027C16.3141 6.79214 16.3188 6.83642 16.3142 6.88022V9.41277C16.3147 9.4539 16.307 9.49472 16.2915 9.53285C16.2761 9.57098 16.2533 9.60567 16.2243 9.63492C16.1954 9.66416 16.161 9.68738 16.123 9.70322C16.085 9.71907 16.0443 9.72722 16.0032 9.72722Z" fill="#8A9C1E"/>
<path d="M11.6109 11.2996C11.5651 11.3001 11.5198 11.2903 11.4783 11.271C11.4368 11.2517 11.4001 11.2234 11.3709 11.1881L9.74112 9.24723C9.68597 9.18356 9.65836 9.10059 9.66439 9.01657C9.67041 8.93255 9.70956 8.85437 9.77323 8.79922C9.8369 8.74407 9.91988 8.71647 10.0039 8.72249C10.0879 8.72852 10.1661 8.76767 10.2212 8.83134L11.851 10.7722C11.8778 10.8034 11.898 10.8398 11.9105 10.879C11.9229 10.9182 11.9274 10.9595 11.9236 11.0005C11.9198 11.0415 11.9079 11.0813 11.8884 11.1176C11.869 11.1539 11.8425 11.1859 11.8104 11.2117C11.7574 11.2652 11.6862 11.2966 11.6109 11.2996Z" fill="#8A9C1E"/>
<path d="M9.27123 15.3268H9.21713L6.71841 14.8872C6.63791 14.8708 6.56703 14.8235 6.52094 14.7555C6.47485 14.6875 6.45721 14.6042 6.47179 14.5233C6.48637 14.4424 6.53202 14.3705 6.59896 14.3229C6.6659 14.2753 6.74882 14.2557 6.82998 14.2684L9.32534 14.708C9.40738 14.7228 9.48018 14.7696 9.52774 14.8381C9.57529 14.9066 9.5937 14.9911 9.57893 15.0732C9.56546 15.1448 9.52729 15.2094 9.47106 15.2558C9.41482 15.3021 9.3441 15.3272 9.27123 15.3268Z" fill="#8A9C1E"/>
<path d="M7.8477 21.1935C7.77891 21.1932 7.71212 21.1704 7.65756 21.1285C7.60301 21.0866 7.5637 21.0279 7.54567 20.9615C7.52763 20.8952 7.53186 20.8247 7.55771 20.7609C7.58356 20.6972 7.6296 20.6437 7.68878 20.6086L9.88658 19.3406C9.95816 19.3068 10.0398 19.3013 10.1153 19.3251C10.1908 19.3489 10.2546 19.4003 10.2938 19.469C10.3331 19.5377 10.345 19.6187 10.3272 19.6958C10.3093 19.7729 10.2631 19.8405 10.1976 19.885L8.00323 21.153C7.9554 21.1788 7.90205 21.1927 7.8477 21.1935Z" fill="#8A9C1E"/>
<path d="M20.1758 11.2992C20.1014 11.2997 20.0293 11.2733 19.9729 11.2248C19.9415 11.1985 19.9156 11.1661 19.8967 11.1298C19.8779 11.0934 19.8664 11.0536 19.8629 11.0128C19.8595 10.9719 19.8641 10.9308 19.8766 10.8917C19.8891 10.8527 19.9092 10.8165 19.9357 10.7852L21.5655 8.83089C21.5904 8.79509 21.6226 8.76488 21.6598 8.74218C21.6971 8.71948 21.7387 8.70479 21.782 8.69903C21.8252 8.69328 21.8692 8.69659 21.9111 8.70877C21.953 8.72094 21.9919 8.7417 22.0254 8.76973C22.0588 8.79776 22.0861 8.83245 22.1054 8.87158C22.1247 8.91072 22.1357 8.95344 22.1376 8.99704C22.1395 9.04064 22.1323 9.08416 22.1164 9.12483C22.1006 9.16549 22.0765 9.20242 22.0456 9.23326L20.4294 11.1978C20.3975 11.2326 20.3581 11.2599 20.3142 11.2774C20.2703 11.295 20.223 11.3024 20.1758 11.2992Z" fill="#8A9C1E"/>
<path d="M22.5291 15.3268C22.4521 15.3244 22.3788 15.2938 22.3229 15.2409C22.267 15.188 22.2325 15.1164 22.2258 15.0398C22.2191 14.9631 22.2408 14.8866 22.2867 14.8249C22.3326 14.7631 22.3996 14.7204 22.4749 14.7047L24.9703 14.2651C25.0504 14.2551 25.1313 14.2763 25.1962 14.3243C25.2611 14.3723 25.3051 14.4435 25.319 14.523C25.3329 14.6025 25.3157 14.6843 25.2709 14.7515C25.2261 14.8187 25.1573 14.8661 25.0785 14.8839L22.5831 15.3234L22.5291 15.3268Z" fill="#8A9C1E"/>
<path d="M23.9389 21.1934C23.8834 21.1932 23.8288 21.1792 23.78 21.1529L21.5856 19.8849C21.5486 19.8649 21.5161 19.8377 21.4898 19.8049C21.4636 19.7721 21.4442 19.7343 21.4327 19.6939C21.4213 19.6534 21.4181 19.6111 21.4233 19.5694C21.4285 19.5277 21.442 19.4875 21.4631 19.4511C21.4841 19.4147 21.5122 19.3829 21.5457 19.3576C21.5792 19.3322 21.6175 19.3139 21.6582 19.3036C21.6989 19.2932 21.7413 19.2912 21.7828 19.2976C21.8244 19.3039 21.8642 19.3185 21.9 19.3405L24.0945 20.6085C24.1305 20.6288 24.1622 20.6561 24.1875 20.6889C24.2129 20.7216 24.2315 20.759 24.2422 20.799C24.2529 20.839 24.2555 20.8808 24.2499 20.9218C24.2443 20.9628 24.2305 21.0023 24.2094 21.0379C24.1818 21.0851 24.1423 21.1243 24.0948 21.1516C24.0474 21.1789 23.9936 21.1933 23.9389 21.1934Z" fill="#8A9C1E"/>
<path d="M16.0031 8.30387C15.9616 8.30388 15.9217 8.2876 15.892 8.25852C15.8622 8.22945 15.8451 8.18989 15.8442 8.14833V6.9649C15.8498 6.92716 15.8687 6.89268 15.8976 6.86775C15.9265 6.84282 15.9633 6.8291 16.0015 6.8291C16.0396 6.8291 16.0765 6.84282 16.1053 6.86775C16.1342 6.89268 16.1531 6.92716 16.1587 6.9649V8.15509C16.1562 8.19488 16.1388 8.23226 16.1099 8.25982C16.0811 8.28738 16.043 8.3031 16.0031 8.30387Z" fill="#8A9C1E"/>
<path d="M14.6001 8.49293C14.5634 8.49283 14.5277 8.47996 14.4994 8.45653C14.471 8.4331 14.4516 8.40055 14.4446 8.36444L14.2282 7.14043C14.2248 7.12022 14.2255 7.09955 14.2301 7.07959C14.2347 7.05963 14.2433 7.04078 14.2552 7.02413C14.2671 7.00747 14.2823 6.99335 14.2997 6.98255C14.3171 6.97176 14.3365 6.96451 14.3567 6.96123C14.377 6.9563 14.3981 6.95571 14.4186 6.95947C14.4392 6.96323 14.4586 6.97128 14.4759 6.98308C14.4931 6.99488 14.5076 7.01017 14.5186 7.02796C14.5295 7.04575 14.5366 7.06564 14.5393 7.08633L14.7557 8.31034C14.7626 8.35155 14.753 8.39382 14.7289 8.428C14.7049 8.46217 14.6683 8.4855 14.6272 8.49293H14.6001Z" fill="#8A9C1E"/>
<path d="M13.231 8.84865C13.1993 8.84857 13.1684 8.8388 13.1424 8.82068C13.1164 8.80255 13.0966 8.77692 13.0856 8.74722L12.6528 7.57731C12.6458 7.558 12.6427 7.5375 12.6437 7.517C12.6447 7.4965 12.6498 7.47639 12.6586 7.45785C12.6674 7.4393 12.6798 7.42268 12.695 7.40895C12.7103 7.39521 12.7281 7.38463 12.7475 7.37782C12.7665 7.37029 12.7869 7.3667 12.8074 7.36724C12.8279 7.36779 12.848 7.37246 12.8666 7.38099C12.8853 7.38951 12.902 7.40171 12.9158 7.41686C12.9296 7.432 12.9402 7.44977 12.947 7.46911L13.373 8.63902C13.38 8.65833 13.383 8.67882 13.382 8.69933C13.381 8.71983 13.376 8.73993 13.3672 8.75848C13.3584 8.77702 13.346 8.79364 13.3308 8.80738C13.3155 8.82111 13.2977 8.83169 13.2783 8.83851C13.2633 8.84464 13.2472 8.84808 13.231 8.84865Z" fill="#8A9C1E"/>
<path d="M11.9491 9.4468C11.9217 9.4469 11.8947 9.43976 11.871 9.42611C11.8472 9.41245 11.8275 9.39276 11.8138 9.36904L11.1917 8.29042C11.171 8.25455 11.1655 8.21196 11.1763 8.17201C11.1871 8.13206 11.2133 8.09803 11.2491 8.0774C11.285 8.05678 11.3276 8.05125 11.3676 8.06203C11.4075 8.07281 11.4415 8.09902 11.4622 8.13489L12.0843 9.2135C12.098 9.23718 12.1052 9.26406 12.1051 9.2914C12.1051 9.31875 12.0979 9.34561 12.0842 9.36927C12.0705 9.39294 12.0507 9.41256 12.027 9.42617C12.0033 9.43979 11.9764 9.4469 11.9491 9.4468Z" fill="#8A9C1E"/>
<path d="M9.78851 11.2587C9.75118 11.2598 9.71486 11.2465 9.68708 11.2215L8.73357 10.4236C8.70173 10.3971 8.68171 10.3591 8.67791 10.3179C8.6741 10.2767 8.68683 10.2356 8.71328 10.2038C8.73973 10.1719 8.77775 10.1519 8.81896 10.1481C8.86018 10.1443 8.90122 10.157 8.93306 10.1835L9.88657 10.9815C9.91825 11.0089 9.9378 11.0478 9.94097 11.0896C9.94414 11.1314 9.93065 11.1727 9.90347 11.2046C9.88949 11.2216 9.87193 11.2352 9.85205 11.2446C9.83218 11.2539 9.81048 11.2588 9.78851 11.2587Z" fill="#8A9C1E"/>
<path d="M8.97731 12.419C8.94903 12.4188 8.92123 12.4118 8.89616 12.3988L7.82092 11.7766C7.80316 11.7664 7.78758 11.7528 7.77508 11.7366C7.76258 11.7203 7.75341 11.7018 7.74807 11.682C7.74273 11.6622 7.74133 11.6416 7.74397 11.6213C7.74661 11.601 7.75323 11.5814 7.76344 11.5636C7.77366 11.5458 7.78727 11.5303 7.8035 11.5178C7.81973 11.5053 7.83827 11.4961 7.85805 11.4907C7.87783 11.4854 7.89846 11.484 7.91878 11.4867C7.9391 11.4893 7.9587 11.4959 7.97646 11.5061L9.05507 12.1283C9.085 12.1453 9.10844 12.1717 9.12174 12.2034C9.13503 12.2352 9.13742 12.2704 9.12853 12.3037C9.11963 12.3369 9.09996 12.3663 9.0726 12.3872C9.04523 12.4081 9.01172 12.4193 8.97731 12.419Z" fill="#8A9C1E"/>
<path d="M8.37866 13.704C8.3608 13.7076 8.34243 13.7076 8.32457 13.704L7.15465 13.278C7.13532 13.2712 7.11754 13.2606 7.1024 13.2468C7.08726 13.233 7.07506 13.2163 7.06653 13.1977C7.05801 13.1791 7.05333 13.1589 7.05279 13.1384C7.05224 13.1179 7.05584 13.0976 7.06336 13.0785C7.07018 13.0591 7.08076 13.0413 7.0945 13.0261C7.10823 13.0108 7.12485 12.9984 7.1434 12.9896C7.16194 12.9808 7.18204 12.9758 7.20254 12.9748C7.22305 12.9738 7.24355 12.9769 7.26286 12.9838L8.43276 13.4099C8.46549 13.4241 8.49246 13.449 8.50933 13.4805C8.52619 13.512 8.53196 13.5482 8.52571 13.5834C8.51946 13.6185 8.50156 13.6505 8.47488 13.6743C8.4482 13.698 8.4143 13.7121 8.37866 13.7142V13.704Z" fill="#8A9C1E"/>
<path d="M7.88812 16.48H6.64383C6.60257 16.48 6.56301 16.4636 6.53384 16.4345C6.50467 16.4053 6.48828 16.3657 6.48828 16.3245C6.48914 16.2835 6.50581 16.2444 6.5348 16.2155C6.56378 16.1865 6.60285 16.1698 6.64383 16.1689H7.88812C7.9291 16.1698 7.96816 16.1865 7.99714 16.2155C8.02613 16.2444 8.04279 16.2835 8.04365 16.3245C8.04365 16.3657 8.02726 16.4053 7.99809 16.4345C7.96893 16.4636 7.92937 16.48 7.88812 16.48Z" fill="#8A9C1E"/>
<path d="M6.78633 18.1064C6.74976 18.1069 6.71425 18.0941 6.68631 18.0705C6.65836 18.0469 6.63986 18.0141 6.63418 17.9779C6.63027 17.9577 6.63041 17.9369 6.6346 17.9168C6.63879 17.8966 6.64693 17.8775 6.65857 17.8605C6.67021 17.8435 6.68511 17.829 6.70239 17.8178C6.71968 17.8066 6.73902 17.799 6.75928 17.7953L7.98329 17.5823C8.00357 17.5774 8.02466 17.5768 8.0452 17.5806C8.06573 17.5843 8.08524 17.5924 8.10247 17.6042C8.11969 17.616 8.13423 17.6313 8.14515 17.6491C8.15608 17.6668 8.16314 17.6867 8.16587 17.7074C8.16975 17.7279 8.16948 17.7489 8.16508 17.7693C8.16068 17.7896 8.15224 17.8089 8.14025 17.8259C8.12827 17.8429 8.113 17.8574 8.09533 17.8684C8.07765 17.8794 8.05795 17.8868 8.03739 17.89L6.81338 18.1064H6.78633Z" fill="#8A9C1E"/>
<path d="M7.20873 19.6849C7.17652 19.6851 7.14509 19.675 7.11896 19.6562C7.09284 19.6373 7.07336 19.6107 7.06334 19.5801C7.0491 19.5415 7.05071 19.4989 7.06781 19.4615C7.08492 19.4241 7.11613 19.395 7.15463 19.3806L8.32454 18.9545C8.34385 18.9476 8.36434 18.9445 8.38484 18.9455C8.40535 18.9465 8.42545 18.9515 8.444 18.9603C8.46254 18.9691 8.47916 18.9815 8.4929 18.9968C8.50664 19.012 8.51722 19.0299 8.52403 19.0492C8.53155 19.0683 8.53514 19.0887 8.5346 19.1091C8.53405 19.1296 8.52938 19.1498 8.52085 19.1684C8.51233 19.187 8.50013 19.2037 8.48499 19.2175C8.46984 19.2313 8.45207 19.2419 8.43273 19.2487L7.26283 19.6747C7.24556 19.6814 7.22723 19.6848 7.20873 19.6849Z" fill="#8A9C1E"/>
<path d="M7.89869 21.1624C7.86428 21.1626 7.83076 21.1514 7.8034 21.1305C7.77603 21.1097 7.75636 21.0803 7.74747 21.0471C7.73858 21.0138 7.74096 20.9786 7.75425 20.9468C7.76754 20.9151 7.79099 20.8886 7.82092 20.8716L8.89616 20.2495C8.93271 20.2294 8.97557 20.2242 9.01586 20.2349C9.05614 20.2456 9.09077 20.2714 9.11255 20.307C9.12283 20.3247 9.1295 20.3443 9.13217 20.3646C9.13484 20.385 9.13347 20.4056 9.12812 20.4254C9.12278 20.4452 9.11357 20.4638 9.10104 20.48C9.0885 20.4962 9.07288 20.5098 9.05507 20.52L7.97646 21.1421C7.95277 21.1556 7.92594 21.1626 7.89869 21.1624Z" fill="#8A9C1E"/>
<path d="M8.835 22.5016C8.81261 22.5012 8.79053 22.4962 8.77017 22.4869C8.7498 22.4776 8.73158 22.4641 8.71665 22.4475C8.68947 22.4155 8.676 22.3742 8.67917 22.3324C8.68233 22.2906 8.70189 22.2517 8.73357 22.2243L9.68708 21.4263C9.71624 21.3972 9.75575 21.3809 9.79696 21.3809C9.83817 21.3809 9.87769 21.3972 9.90685 21.4263C9.93404 21.4582 9.94751 21.4996 9.94434 21.5414C9.94118 21.5832 9.92162 21.622 9.88994 21.6495L8.93306 22.4644C8.90539 22.4873 8.8709 22.5004 8.835 22.5016Z" fill="#8A9C1E"/>
<path d="M17.0891 8.49284H17.0485C17.028 8.48963 17.0084 8.48227 16.9909 8.47121C16.9734 8.46015 16.9583 8.44563 16.9466 8.42853C16.9348 8.41143 16.9267 8.39213 16.9228 8.37179C16.9188 8.35145 16.919 8.33051 16.9234 8.31026L17.1398 7.08625C17.1415 7.06546 17.1478 7.0453 17.1582 7.02722C17.1686 7.00913 17.1829 6.99357 17.2 6.98162C17.2171 6.96968 17.2366 6.96165 17.2572 6.95811C17.2778 6.95457 17.2989 6.95561 17.319 6.96115C17.3392 6.96443 17.3586 6.97168 17.376 6.98247C17.3934 6.99326 17.4085 7.00739 17.4205 7.02404C17.4324 7.0407 17.4409 7.05954 17.4456 7.0795C17.4502 7.09946 17.4509 7.12014 17.4475 7.14035L17.2311 8.36774C17.2239 8.40106 17.2063 8.43121 17.1807 8.45374C17.1552 8.47626 17.123 8.48997 17.0891 8.49284Z" fill="#8A9C1E"/>
<path d="M18.4583 8.84839C18.4404 8.85162 18.4221 8.85162 18.4042 8.84839C18.3848 8.84158 18.367 8.831 18.3518 8.81726C18.3365 8.80353 18.3241 8.78691 18.3153 8.76836C18.3065 8.74982 18.3015 8.72971 18.3005 8.70921C18.2995 8.68871 18.3025 8.66821 18.3095 8.6489L18.7389 7.47899C18.7541 7.44025 18.7838 7.40899 18.8217 7.39193C18.8597 7.37486 18.9028 7.37334 18.9418 7.3877C18.9803 7.40214 19.0115 7.43122 19.0286 7.46861C19.0457 7.50599 19.0473 7.54862 19.0331 7.58719L18.6071 8.7571C18.5946 8.78574 18.5737 8.80987 18.5471 8.8262C18.5205 8.84253 18.4895 8.85028 18.4583 8.84839Z" fill="#8A9C1E"/>
<path d="M19.7532 9.44698C19.7259 9.44708 19.699 9.43996 19.6753 9.42635C19.6516 9.41274 19.6319 9.39311 19.6181 9.36945C19.6044 9.34579 19.5972 9.31893 19.5972 9.29158C19.5971 9.26423 19.6043 9.23736 19.618 9.21367L20.2401 8.13506C20.2503 8.11725 20.2639 8.10163 20.2801 8.0891C20.2963 8.07656 20.3149 8.06735 20.3347 8.06201C20.3545 8.05667 20.3752 8.05529 20.3955 8.05797C20.4158 8.06064 20.4354 8.0673 20.4532 8.07758C20.4713 8.08741 20.4873 8.10082 20.5001 8.11701C20.5129 8.1332 20.5222 8.15182 20.5276 8.17175C20.533 8.19168 20.5343 8.21249 20.5314 8.23292C20.5284 8.25335 20.5214 8.27298 20.5106 8.2906L19.8919 9.36921C19.8774 9.39297 19.857 9.41261 19.8327 9.42623C19.8085 9.43985 19.7811 9.44699 19.7532 9.44698Z" fill="#8A9C1E"/>
<path d="M21.9004 11.2592C21.8773 11.259 21.8546 11.2533 21.8341 11.2428C21.8135 11.2322 21.7957 11.217 21.7821 11.1984C21.7528 11.1686 21.7363 11.1285 21.7363 11.0868C21.7363 11.045 21.7528 11.0049 21.7821 10.9752L22.7525 10.184C22.7848 10.1572 22.8265 10.1443 22.8683 10.1481C22.9101 10.1519 22.9487 10.1721 22.9757 10.2043C22.9888 10.22 22.9987 10.2382 23.0048 10.2578C23.011 10.2774 23.0131 10.298 23.0112 10.3184C23.0094 10.3388 23.0035 10.3587 22.9939 10.3768C22.9843 10.3949 22.9712 10.411 22.9554 10.4241L22.0019 11.222C21.9883 11.2347 21.9723 11.2445 21.9549 11.2509C21.9375 11.2573 21.919 11.2601 21.9004 11.2592Z" fill="#8A9C1E"/>
<path d="M22.715 12.419C22.6872 12.4191 22.6598 12.4119 22.6355 12.3983C22.6112 12.3847 22.5909 12.365 22.5764 12.3413C22.5565 12.3052 22.5514 12.2629 22.5621 12.2232C22.5729 12.1834 22.5986 12.1494 22.6339 12.1283L23.7125 11.5061C23.7484 11.4855 23.7909 11.48 23.8309 11.4907C23.8708 11.5015 23.9049 11.5277 23.9255 11.5636C23.9461 11.5995 23.9517 11.6421 23.9409 11.682C23.9301 11.722 23.9039 11.756 23.868 11.7766L22.7962 12.3988C22.7715 12.4128 22.7434 12.4198 22.715 12.419Z" fill="#8A9C1E"/>
<path d="M23.3138 13.7037C23.2812 13.7035 23.2495 13.6934 23.2229 13.6747C23.1963 13.6559 23.1761 13.6294 23.165 13.5988C23.158 13.5795 23.1549 13.559 23.1559 13.5385C23.1569 13.518 23.162 13.4979 23.1708 13.4794C23.1796 13.4608 23.192 13.4442 23.2072 13.4305C23.2225 13.4167 23.2403 13.4062 23.2597 13.3993L24.4262 12.9733C24.4657 12.96 24.5088 12.9624 24.5466 12.9801C24.5843 12.9977 24.6139 13.0292 24.6291 13.068C24.636 13.0873 24.6391 13.1078 24.6381 13.1283C24.6371 13.1488 24.6321 13.1689 24.6233 13.1874C24.6145 13.206 24.6021 13.2226 24.5868 13.2363C24.5716 13.2501 24.5538 13.2607 24.5344 13.2675L23.3679 13.6935L23.3138 13.7037Z" fill="#8A9C1E"/>
<path d="M25.0449 16.48H23.8108C23.7901 16.4805 23.7695 16.4768 23.7502 16.4692C23.731 16.4616 23.7134 16.4502 23.6986 16.4357C23.6838 16.4212 23.672 16.4039 23.664 16.3848C23.656 16.3657 23.6519 16.3452 23.6519 16.3245C23.6527 16.2829 23.6699 16.2434 23.6996 16.2143C23.7293 16.1852 23.7692 16.1689 23.8108 16.1689H25.0517C25.0932 16.1689 25.1332 16.1852 25.1629 16.2143C25.1926 16.2434 25.2097 16.2829 25.2106 16.3245C25.2106 16.3458 25.2063 16.3669 25.1979 16.3864C25.1894 16.406 25.177 16.4236 25.1615 16.4382C25.146 16.4528 25.1276 16.464 25.1076 16.4712C25.0875 16.4784 25.0662 16.4814 25.0449 16.48Z" fill="#8A9C1E"/>
<path d="M24.9027 18.1064H24.8757L23.6517 17.89C23.611 17.8818 23.575 17.8583 23.5511 17.8243C23.5272 17.7904 23.5172 17.7485 23.5232 17.7074C23.5259 17.6867 23.533 17.6668 23.5439 17.6491C23.5548 17.6313 23.5694 17.616 23.5866 17.6042C23.6038 17.5924 23.6233 17.5843 23.6439 17.5806C23.6644 17.5768 23.6855 17.5774 23.7058 17.5823L24.9298 17.7953C24.9705 17.8036 25.0065 17.8271 25.0304 17.861C25.0543 17.895 25.0643 17.9368 25.0583 17.9779C25.0518 18.0143 25.0327 18.0473 25.0042 18.0708C24.9757 18.0944 24.9397 18.107 24.9027 18.1064Z" fill="#8A9C1E"/>
<path d="M24.4866 19.6847C24.4687 19.688 24.4504 19.688 24.4325 19.6847L23.266 19.2587C23.2467 19.2519 23.2288 19.2413 23.2136 19.2276C23.1983 19.2138 23.1859 19.1972 23.1771 19.1787C23.1683 19.1601 23.1633 19.14 23.1623 19.1195C23.1613 19.099 23.1644 19.0785 23.1713 19.0592C23.1865 19.0204 23.2161 18.9889 23.2538 18.9713C23.2916 18.9537 23.3347 18.9512 23.3742 18.9645L24.5407 19.3906C24.5773 19.4015 24.6087 19.4254 24.6287 19.458C24.6488 19.4905 24.6562 19.5292 24.6495 19.5669C24.6428 19.6045 24.6225 19.6383 24.5925 19.6619C24.5624 19.6855 24.5248 19.6973 24.4866 19.6949V19.6847Z" fill="#8A9C1E"/>
<path d="M23.7902 21.1624C23.763 21.1626 23.7362 21.1556 23.7125 21.1421L22.6339 20.52C22.5986 20.4988 22.5729 20.4648 22.5621 20.4251C22.5514 20.3853 22.5565 20.343 22.5764 20.307C22.5982 20.2714 22.6328 20.2456 22.6731 20.2349C22.7134 20.2242 22.7562 20.2294 22.7928 20.2495L23.868 20.8716C23.8858 20.8818 23.9014 20.8954 23.914 20.9116C23.9265 20.9278 23.9357 20.9464 23.9411 20.9662C23.9464 20.986 23.9478 21.0066 23.9451 21.027C23.9424 21.0473 23.9358 21.0669 23.9255 21.0846C23.9121 21.1086 23.8924 21.1285 23.8686 21.1422C23.8448 21.1559 23.8177 21.1629 23.7902 21.1624Z" fill="#8A9C1E"/>
<path d="M22.8536 22.5014C22.8167 22.5004 22.781 22.4874 22.7522 22.4642L21.7987 21.6798C21.7694 21.65 21.7529 21.6099 21.7529 21.5682C21.7529 21.5264 21.7694 21.4863 21.7987 21.4566C21.8278 21.4275 21.8674 21.4111 21.9086 21.4111C21.9498 21.4111 21.9893 21.4275 22.0185 21.4566L22.972 22.2546C23.0042 22.2815 23.0243 22.3202 23.0281 22.362C23.0319 22.4038 23.0191 22.4454 22.9923 22.4777C22.972 22.491 22.9493 22.5 22.9254 22.504C22.9016 22.5081 22.8771 22.5072 22.8536 22.5014Z" fill="#8A9C1E"/>
<path d="M19.5809 25.4571H12.8184C12.6065 25.4771 12.3928 25.4526 12.191 25.3853C11.9891 25.3179 11.8035 25.2091 11.6461 25.0659C11.4888 24.9226 11.363 24.7481 11.277 24.5535C11.1909 24.3588 11.1465 24.1484 11.1465 23.9355C11.1465 23.7227 11.1909 23.5123 11.277 23.3176C11.363 23.123 11.4888 22.9485 11.6461 22.8052C11.8035 22.662 11.9891 22.5532 12.191 22.4858C12.3928 22.4185 12.6065 22.394 12.8184 22.414H19.5809C19.9597 22.4497 20.3115 22.6255 20.5676 22.9069C20.8237 23.1883 20.9656 23.5551 20.9656 23.9355C20.9656 24.316 20.8237 24.6828 20.5676 24.9642C20.3115 25.2456 19.9597 25.4213 19.5809 25.4571ZM12.8184 23.026C12.6954 23.0185 12.5722 23.0362 12.4564 23.078C12.3405 23.1199 12.2344 23.1851 12.1447 23.2695C12.0549 23.3539 11.9834 23.4558 11.9345 23.5689C11.8856 23.682 11.8604 23.8039 11.8604 23.9271C11.8604 24.0503 11.8856 24.1722 11.9345 24.2853C11.9834 24.3984 12.0549 24.5003 12.1447 24.5847C12.2344 24.6691 12.3405 24.7343 12.4564 24.7761C12.5722 24.818 12.6954 24.8357 12.8184 24.8282H19.5809C19.7039 24.8357 19.8271 24.818 19.9429 24.7761C20.0588 24.7343 20.1649 24.6691 20.2547 24.5847C20.3444 24.5003 20.4159 24.3984 20.4648 24.2853C20.5137 24.1722 20.5389 24.0503 20.5389 23.9271C20.5389 23.8039 20.5137 23.682 20.4648 23.5689C20.4159 23.4558 20.3444 23.3539 20.2547 23.2695C20.1649 23.1851 20.0588 23.1199 19.9429 23.078C19.8271 23.0362 19.7039 23.0185 19.5809 23.026H12.8184Z" fill="#8A9C1E"/>
</svg>
