<svg width="32" height="33" viewBox="0 0 32 33" fill="none" xmlns="http://www.w3.org/2000/svg">
<path d="M17.6531 33H14.3437C14.2943 33.0002 14.2466 32.9814 14.2099 32.9473C14.1732 32.9131 14.1503 32.8661 14.1455 32.8154L14.0911 32.1066C13.7714 32.067 13.4516 32.0143 13.1319 31.9549L12.8697 32.6143C12.8511 32.6618 12.8156 32.7002 12.7704 32.7217C12.7252 32.7431 12.6738 32.746 12.6267 32.7296L9.47722 31.6747C9.4304 31.6594 9.39089 31.6265 9.36658 31.5825C9.34228 31.5385 9.33498 31.4867 9.34612 31.4373L9.50599 30.745C9.21183 30.6066 8.92407 30.4516 8.64269 30.2934L8.19504 30.8307C8.16277 30.8694 8.11765 30.8942 8.06855 30.9003C8.01945 30.9064 7.96991 30.8933 7.92966 30.8637L5.2502 28.8626C5.20991 28.8327 5.1822 28.7881 5.17269 28.7379C5.16319 28.6877 5.17261 28.6356 5.19904 28.5923L5.55396 27.9857C5.32055 27.7582 5.09033 27.5209 4.8697 27.2802L4.28457 27.6494C4.24257 27.6767 4.19205 27.6864 4.14334 27.6766C4.09462 27.6668 4.05137 27.6382 4.02238 27.5967L2.07514 24.834C2.04567 24.7928 2.03258 24.7415 2.03852 24.6907C2.04446 24.6399 2.06899 24.5933 2.10712 24.5604L2.62829 24.0989C2.47162 23.8088 2.32454 23.5088 2.18705 23.2088L1.51879 23.3736C1.471 23.3843 1.42105 23.3764 1.37856 23.3515C1.33606 23.3265 1.30402 23.2863 1.28857 23.2384L0.262185 19.9615C0.247125 19.9129 0.250257 19.8602 0.270967 19.8139C0.291677 19.7675 0.328468 19.7308 0.374098 19.711L1.01359 19.4373C0.956032 19.1242 0.904873 18.7945 0.863306 18.4483L0.179058 18.3923C0.129874 18.3874 0.0842466 18.3637 0.0511234 18.3259C0.0180003 18.288 -0.000229704 18.2388 2.18537e-06 18.1879V14.789C-0.000162927 14.7384 0.0181697 14.6896 0.0513576 14.6523C0.0845455 14.615 0.130149 14.5921 0.179058 14.5879L0.863306 14.5319C0.904873 14.2022 0.956032 13.8725 1.01359 13.5428L0.374098 13.2725C0.328936 13.2521 0.292597 13.2153 0.271972 13.1692C0.251347 13.123 0.247865 13.0706 0.262185 13.022L1.28857 9.77472C1.30273 9.72599 1.33454 9.68475 1.37742 9.65958C1.42029 9.63441 1.47092 9.62724 1.51879 9.63955L2.18705 9.80109C2.32454 9.50109 2.47162 9.20438 2.62829 8.91427L2.10712 8.45274C2.06899 8.4199 2.04446 8.37331 2.03852 8.32246C2.03258 8.27161 2.04567 8.22035 2.07514 8.17912L4.02238 5.41648C4.05138 5.37503 4.09438 5.3463 4.14291 5.33592C4.19144 5.32555 4.24199 5.33429 4.28457 5.36043L4.8697 5.72966C5.09033 5.489 5.32055 5.25494 5.55396 5.02417L5.19904 4.42087C5.17261 4.37756 5.16319 4.32549 5.17269 4.27526C5.1822 4.22503 5.20991 4.18044 5.2502 4.15055L7.92966 2.14286C7.96965 2.11248 8.01937 2.09896 8.06869 2.10509C8.118 2.11122 8.16319 2.13651 8.19504 2.17582L8.64269 2.71318C8.92407 2.55054 9.21183 2.39889 9.50599 2.25823L9.34612 1.56922C9.33485 1.51947 9.34206 1.46718 9.36632 1.42264C9.39059 1.3781 9.43015 1.34454 9.47722 1.32857L12.6267 0.273623C12.6739 0.258095 12.725 0.261324 12.7699 0.282678C12.8149 0.304031 12.8505 0.341963 12.8697 0.389009L13.1319 1.04835C13.4516 0.989009 13.7714 0.936261 14.0911 0.893404L14.1455 0.187905C14.1502 0.136883 14.1731 0.0894714 14.2097 0.0547818C14.2463 0.0200921 14.294 0.000581998 14.3437 1.08515e-06H17.6531C17.703 -0.000166539 17.7511 0.0190913 17.7879 0.0539266C17.8246 0.0887619 17.8473 0.136602 17.8513 0.187905L17.9057 0.893404C18.2254 0.936261 18.5452 0.989009 18.8649 1.04835L19.1271 0.389009C19.1463 0.341963 19.1819 0.304031 19.2269 0.282678C19.2718 0.261324 19.3229 0.258095 19.3701 0.273623L22.5196 1.32857C22.5667 1.34454 22.6062 1.3781 22.6305 1.42264C22.6547 1.46718 22.662 1.51947 22.6507 1.56922L22.4908 2.25823C22.7818 2.39999 23.0727 2.55164 23.3541 2.71318L23.8018 2.17582C23.8336 2.13651 23.8788 2.11122 23.9281 2.10509C23.9774 2.09896 24.0272 2.11248 24.0671 2.14286L26.7466 4.15055C26.7869 4.18044 26.8146 4.22503 26.8241 4.27526C26.8336 4.32549 26.8242 4.37756 26.7978 4.42087L26.4397 5.02417C26.6763 5.25164 26.9065 5.489 27.1239 5.72966L27.7122 5.36043C27.7548 5.33429 27.8054 5.32555 27.8539 5.33592C27.9024 5.3463 27.9454 5.37503 27.9744 5.41648L29.9217 8.17912C29.9511 8.22035 29.9642 8.27161 29.9583 8.32246C29.9524 8.37331 29.9278 8.4199 29.8897 8.45274L29.3685 8.91427C29.522 9.20109 29.6691 9.50109 29.8098 9.80109L30.478 9.63955C30.5259 9.62724 30.5765 9.63441 30.6194 9.65958C30.6623 9.68475 30.6941 9.72599 30.7082 9.77472L31.7346 13.022C31.7482 13.0706 31.7444 13.1227 31.7239 13.1687C31.7033 13.2147 31.6674 13.2515 31.6227 13.2725L30.9832 13.5428C31.0408 13.8725 31.0919 14.2022 31.1335 14.5319L31.8178 14.5879C31.867 14.592 31.9129 14.6149 31.9466 14.6521C31.9803 14.6893 31.9994 14.7381 32 14.789V18.2044C31.9994 18.2556 31.9805 18.3049 31.9469 18.3426C31.9132 18.3803 31.8672 18.4039 31.8178 18.4088L31.1335 18.4648C31.0919 18.7945 31.0408 19.1242 30.9832 19.4538L31.6227 19.7275C31.6679 19.7479 31.7042 19.7846 31.7248 19.8308C31.7455 19.877 31.7489 19.9294 31.7346 19.978L30.7082 23.2253C30.6928 23.2731 30.6607 23.3134 30.6183 23.3383C30.5758 23.3633 30.5258 23.3711 30.478 23.3604L29.8098 23.1956C29.6691 23.4989 29.522 23.7956 29.3685 24.0857L29.8897 24.5472C29.9278 24.5801 29.9524 24.6267 29.9583 24.6775C29.9642 24.7284 29.9511 24.7796 29.9217 24.8209L27.9744 27.5835C27.9454 27.625 27.9022 27.6536 27.8535 27.6634C27.8048 27.6732 27.7542 27.6635 27.7122 27.6362L27.1239 27.267C26.9065 27.511 26.6763 27.745 26.4397 27.9725L26.7978 28.5791C26.8242 28.6224 26.8336 28.6745 26.8241 28.7247C26.8146 28.7749 26.7869 28.8195 26.7466 28.8494L24.0671 30.8406C24.0269 30.8703 23.9774 30.8833 23.9283 30.8772C23.8792 30.8711 23.834 30.8463 23.8018 30.8077L23.3541 30.2703C23.0727 30.4318 22.7818 30.5835 22.4908 30.722L22.6507 31.4143C22.6618 31.4636 22.6545 31.5154 22.6302 31.5594C22.6059 31.6034 22.5664 31.6363 22.5196 31.6516L19.3701 32.7066C19.323 32.7237 19.2713 32.7213 19.2259 32.6998C19.1805 32.6782 19.1451 32.6393 19.1271 32.5912L18.8649 31.9318C18.5452 31.9912 18.2254 32.0439 17.9057 32.0835L17.8513 32.7923C17.8522 32.8195 17.8477 32.8466 17.8381 32.872C17.8284 32.8974 17.8139 32.9205 17.7954 32.94C17.7769 32.9594 17.7547 32.9747 17.7302 32.985C17.7058 32.9954 17.6795 33.0004 17.6531 33ZM14.5228 32.5945H17.474L17.5284 31.9088C17.5318 31.8621 17.5509 31.8181 17.5825 31.7844C17.614 31.7507 17.6559 31.7294 17.701 31.7241C18.1359 31.6714 18.5548 31.6055 18.9449 31.5263C18.9893 31.5159 19.0359 31.5221 19.0763 31.5438C19.1168 31.5656 19.1484 31.6014 19.1655 31.645L19.4213 32.278L22.2254 31.3384L22.0719 30.6791C22.0618 30.6336 22.067 30.5859 22.0868 30.5439C22.1066 30.502 22.1397 30.4682 22.1807 30.4483C22.5612 30.2703 22.9385 30.0725 23.303 29.8582C23.3429 29.8356 23.3892 29.8278 23.434 29.8362C23.4789 29.8446 23.5195 29.8687 23.5492 29.9044L23.9808 30.4252L26.3693 28.6384L26.0208 28.0483C25.9977 28.0082 25.9886 27.9612 25.995 27.915C26.0014 27.8688 26.0229 27.8263 26.056 27.7945C26.3757 27.5044 26.6635 27.1945 26.9448 26.878C26.9759 26.8431 27.0178 26.8204 27.0632 26.8138C27.1087 26.8072 27.155 26.817 27.1943 26.8417L27.7634 27.2011L29.4964 24.7384L28.9912 24.2901C28.9561 24.2599 28.9323 24.2179 28.9241 24.1715C28.916 24.1251 28.9239 24.0772 28.9464 24.0362C29.1511 23.667 29.3429 23.278 29.5188 22.8824C29.5371 22.8393 29.5697 22.8044 29.6107 22.7839C29.6517 22.7633 29.6985 22.7585 29.7426 22.7703L30.3821 22.9286L31.2934 20.0373L30.6827 19.7736C30.6402 19.756 30.6051 19.7236 30.5834 19.682C30.5618 19.6404 30.5551 19.5923 30.5644 19.5461C30.6443 19.1373 30.7082 18.7088 30.7562 18.2637C30.7619 18.2174 30.7827 18.1745 30.8153 18.1421C30.8479 18.1098 30.8902 18.0898 30.9353 18.0857L31.6003 18.0297V14.9868L30.9353 14.9308C30.8902 14.9266 30.8479 14.9067 30.8153 14.8743C30.7827 14.8419 30.7619 14.799 30.7562 14.7527C30.7082 14.3077 30.6443 13.8758 30.5644 13.4703C30.5544 13.4241 30.5608 13.3757 30.5826 13.3339C30.6043 13.2922 30.6398 13.2599 30.6827 13.2428L31.2934 12.9791L30.3917 10.0714L29.7522 10.2297C29.7081 10.2401 29.6618 10.2347 29.6211 10.2143C29.5804 10.1939 29.5477 10.1598 29.5284 10.1176C29.3525 9.72197 29.1607 9.33296 28.956 8.96043C28.9335 8.91942 28.9256 8.87153 28.9337 8.82513C28.9419 8.77872 28.9657 8.73676 29.0008 8.70658L29.506 8.25823L27.773 5.7989L27.2038 6.15494C27.165 6.18002 27.1189 6.19045 27.0734 6.18443C27.028 6.17842 26.9859 6.15635 26.9544 6.12197C26.6731 5.7923 26.3725 5.4956 26.0655 5.20219C26.0325 5.17037 26.011 5.12783 26.0046 5.08166C25.9982 5.03548 26.0073 4.98844 26.0304 4.94834L26.3789 4.36153L23.9904 2.57472L23.5588 3.0956C23.5291 3.1313 23.4882 3.15514 23.4432 3.16297C23.3982 3.1708 23.352 3.16213 23.3126 3.13846C22.948 2.92747 22.5707 2.72967 22.1902 2.55164C22.1493 2.53176 22.1162 2.49802 22.0964 2.45604C22.0766 2.41406 22.0714 2.36635 22.0815 2.32087L22.235 1.66153L19.4309 0.721979L19.1751 1.35164C19.158 1.39543 19.1266 1.43165 19.0862 1.45395C19.0459 1.47625 18.9992 1.48321 18.9544 1.47363C18.5643 1.39121 18.1455 1.32527 17.7106 1.27582C17.6653 1.26986 17.6232 1.24789 17.5918 1.21364C17.5603 1.17939 17.5413 1.13496 17.538 1.08791L17.4836 0.402199H14.5324L14.478 1.08791C14.4747 1.13496 14.4557 1.17939 14.4242 1.21364C14.3927 1.24789 14.3508 1.26986 14.3054 1.27582C13.8705 1.32527 13.4516 1.39121 13.0616 1.47363C13.0167 1.48321 12.9701 1.47625 12.9298 1.45395C12.8894 1.43165 12.858 1.39543 12.8409 1.35164L12.5851 0.721979L9.78098 1.66153L9.93445 2.32087C9.94461 2.36635 9.93937 2.41406 9.91959 2.45604C9.89981 2.49802 9.86669 2.53176 9.82574 2.55164C9.44524 2.72967 9.06794 2.92747 8.70343 3.13846C8.66401 3.16213 8.6178 3.1708 8.57281 3.16297C8.52783 3.15514 8.48693 3.1313 8.45723 3.0956L8.02878 2.58131L5.64349 4.36813L5.99201 4.95494C6.01512 4.99504 6.02422 5.04208 6.01783 5.08826C6.01143 5.13443 5.98991 5.17696 5.95683 5.20878C5.63709 5.50549 5.34612 5.81208 5.06794 6.12857C5.03648 6.16295 4.99444 6.18502 4.94896 6.19103C4.90349 6.19705 4.8574 6.18662 4.81854 6.16154L4.2494 5.80549L2.51639 8.26482L3.02158 8.71318C3.05571 8.74409 3.0787 8.78599 3.08683 8.83207C3.09496 8.87815 3.08774 8.9257 3.06635 8.96702C2.85852 9.34285 2.66667 9.73186 2.494 10.1242C2.47471 10.1664 2.44199 10.2005 2.40128 10.2209C2.36056 10.2413 2.31429 10.2467 2.27018 10.2363L1.63069 10.078L0.719427 12.9692L1.33013 13.233C1.3726 13.2505 1.40773 13.283 1.42936 13.3245C1.45098 13.3661 1.45774 13.4142 1.44844 13.4604C1.3717 13.8626 1.30456 14.2912 1.2566 14.7428C1.25094 14.7891 1.23008 14.832 1.19751 14.8644C1.16494 14.8968 1.12261 14.9167 1.07754 14.9209L0.412465 14.9769V18.0198L1.07754 18.0758C1.12261 18.08 1.16494 18.0999 1.19751 18.1323C1.23008 18.1646 1.25094 18.2075 1.2566 18.2538C1.30456 18.7022 1.3717 19.134 1.44844 19.5362C1.4565 19.5824 1.4492 19.6299 1.42772 19.6712C1.40624 19.7125 1.37185 19.7451 1.33013 19.7637L0.719427 20.0275L1.63069 22.9187L2.27018 22.7604C2.31431 22.7493 2.36081 22.7544 2.40168 22.7749C2.44254 22.7953 2.47519 22.8299 2.494 22.8725C2.66667 23.2648 2.85852 23.6538 3.06635 24.0263C3.08774 24.0677 3.09496 24.1152 3.08683 24.1613C3.0787 24.2074 3.05571 24.2493 3.02158 24.2802L2.51639 24.7285L4.2494 27.1912L4.81854 26.8318C4.85775 26.8072 4.90406 26.7973 4.94955 26.8039C4.99504 26.8105 5.03689 26.8332 5.06794 26.8681C5.34612 27.1813 5.64668 27.4912 5.95683 27.7846C5.98991 27.8164 6.01143 27.8589 6.01783 27.9051C6.02422 27.9513 6.01512 27.9983 5.99201 28.0384L5.64349 28.6285L8.02878 30.4154L8.46362 29.8945C8.4936 29.8593 8.53424 29.8356 8.57893 29.8272C8.62363 29.8188 8.66976 29.8263 8.70983 29.8483C9.07434 30.0593 9.45164 30.2571 9.83214 30.4384C9.87309 30.4583 9.9062 30.4921 9.92598 30.534C9.94576 30.576 9.95101 30.6237 9.94085 30.6692L9.78737 31.3285L12.5915 32.2681L12.8473 31.6351C12.8649 31.592 12.8966 31.5565 12.9369 31.5348C12.9772 31.5131 13.0235 31.5066 13.068 31.5165C13.458 31.5956 13.8769 31.6615 14.3118 31.7143C14.3569 31.7195 14.3988 31.7408 14.4303 31.7745C14.4618 31.8082 14.481 31.8522 14.4844 31.8989L14.5228 32.5945ZM16.0224 24.0659C14.104 24.0691 12.2603 23.2992 10.8847 21.9205C9.50912 20.5419 8.71047 18.6635 8.65916 16.6863C8.60785 14.7091 9.30795 12.7894 10.6101 11.3369C11.9122 9.88434 13.7133 9.01392 15.6291 8.91131C17.545 8.80869 19.4238 9.48201 20.8649 10.7876C22.306 12.0932 23.1953 13.9277 23.343 15.8998C23.4906 17.8719 22.885 19.8254 21.6554 21.3436C20.4258 22.8618 18.6694 23.8245 16.761 24.0263C16.5156 24.0527 16.2691 24.0659 16.0224 24.0659ZM16.0064 9.33625C15.773 9.33625 15.5396 9.33626 15.303 9.37252C13.4851 9.58572 11.8221 10.5296 10.6751 11.9993C9.52813 13.4689 8.98963 15.3457 9.17656 17.2223C9.36349 19.0988 10.2607 20.8236 11.6735 22.0221C13.0864 23.2207 14.9007 23.7964 16.7226 23.6242C18.4912 23.4317 20.121 22.5474 21.2762 21.1533C22.4314 19.7592 23.0241 17.9614 22.9323 16.1302C22.8405 14.299 22.0712 12.5738 20.7827 11.3099C19.4943 10.046 17.7848 9.33964 16.0064 9.33625Z" fill="#8A9C1E"/>
<path d="M12.0383 22.8726L11.8816 22.7605C11.7601 22.6781 11.645 22.5858 11.5299 22.4935L11.3445 22.3451L14.2542 18.2209C13.8217 17.7576 13.5799 17.1398 13.5795 16.4968C13.5794 16.3865 13.5869 16.2763 13.6019 16.1671L8.89844 14.5913L8.9496 14.4034C8.99436 14.2451 9.04871 14.0737 9.10307 13.9319L9.16702 13.7506L13.8673 15.3231C14.0405 14.9934 14.2833 14.708 14.5777 14.4878C14.872 14.2676 15.2105 14.1182 15.5683 14.0506V8.94733H15.8529C15.9498 8.94073 16.047 8.94073 16.1438 8.94733H16.4284V14.044C16.786 14.112 17.1243 14.2616 17.4186 14.4818C17.713 14.7019 17.9558 14.9872 18.1295 15.3166L22.8297 13.744L22.8936 13.9286C22.948 14.0836 23.0024 14.2385 23.0471 14.3968L23.0983 14.5847L18.3948 16.1605C18.4099 16.2697 18.4174 16.3799 18.4172 16.4902C18.4168 17.1332 18.175 17.7511 17.7426 18.2144L20.649 22.3385L20.502 22.4605C20.3645 22.5693 20.243 22.6682 20.1183 22.7539L19.9584 22.866L17.0487 18.7352C16.7209 18.8973 16.3619 18.9814 15.9984 18.9814C15.6348 18.9814 15.2759 18.8973 14.948 18.7352L12.0383 22.8726ZM17.1542 18.2144L20.0319 22.3122L20.0895 22.266L17.2118 18.1682L17.3429 18.0462C17.5537 17.8507 17.7223 17.6118 17.838 17.3449C17.9537 17.078 18.0137 16.7891 18.0143 16.4968C18.0137 16.3516 17.9987 16.2069 17.9696 16.0649L17.9344 15.8869L22.6027 14.321L22.5771 14.2517L17.9088 15.8144L17.8385 15.6495C17.6939 15.3147 17.4666 15.025 17.1793 14.8092C16.892 14.5934 16.5548 14.4591 16.2014 14.4199L16.0255 14.4001V9.33634H15.952V14.4001L15.7761 14.4199C15.4227 14.4591 15.0855 14.5934 14.7983 14.8092C14.511 15.025 14.2836 15.3147 14.139 15.6495L14.0687 15.8144L9.40044 14.2517L9.37485 14.321L14.0431 15.8869L14.008 16.0649C13.979 16.2069 13.964 16.3516 13.9632 16.4968C13.9638 16.7891 14.0239 17.078 14.1395 17.3449C14.2552 17.6118 14.4239 17.8507 14.6347 18.0462L14.7657 18.1682L11.888 22.266L11.9456 22.3122L14.8233 18.2144L14.9768 18.3067C15.2855 18.4867 15.6341 18.5812 15.9888 18.5812C16.3434 18.5812 16.692 18.4867 17.0008 18.3067L17.1542 18.2144Z" fill="#8A9C1E"/>
</svg>
