<svg width="32" height="33" viewBox="0 0 32 33" fill="none" xmlns="http://www.w3.org/2000/svg">
<path d="M6.78503 32.5001H4.33585C4.2925 32.4998 4.25074 32.4836 4.21828 32.4546C4.18582 32.4255 4.16484 32.3856 4.15925 32.3422L4.07819 31.6168L3.58894 32.1462C3.55956 32.1786 3.51939 32.1989 3.47612 32.2032C3.43285 32.2075 3.38952 32.1956 3.35444 32.1696L1.37136 30.7072C1.33644 30.6809 1.3122 30.6427 1.30314 30.5996C1.29409 30.5566 1.30084 30.5116 1.32214 30.4733L1.67823 29.8415L0.968945 29.9848C0.926395 29.9948 0.881677 29.9879 0.843984 29.9656C0.806292 29.9433 0.778494 29.9073 0.766299 29.8649L0.00779706 27.5105C-0.00478642 27.4684 -0.00207017 27.4232 0.0154481 27.3829C0.0329663 27.3427 0.064138 27.3101 0.103338 27.2911L0.760503 26.9986L0.103338 26.7061C0.064138 26.6871 0.0329663 26.6545 0.0154481 26.6143C-0.00207017 26.5741 -0.00478642 26.5288 0.00779706 26.4868L0.766299 24.147C0.779085 24.1048 0.806864 24.0689 0.844285 24.0462C0.881706 24.0236 0.926112 24.0157 0.968945 24.0241L1.67823 24.1704L1.32214 23.5357C1.30084 23.4973 1.29409 23.4524 1.30314 23.4093C1.3122 23.3663 1.33644 23.328 1.37136 23.3017L3.35444 21.8393C3.38928 21.8127 3.43276 21.8004 3.47622 21.8047C3.51967 21.809 3.55992 21.8297 3.58894 21.8627L4.07819 22.4009L4.15925 21.6755C4.16419 21.6316 4.18488 21.5909 4.2174 21.5613C4.24993 21.5317 4.29206 21.5151 4.33585 21.5146H6.78503C6.82883 21.5151 6.87096 21.5317 6.90348 21.5613C6.93601 21.5909 6.95669 21.6316 6.96164 21.6755L7.04558 22.4009L7.53195 21.8627C7.56147 21.8295 7.6022 21.8087 7.64615 21.8044C7.69009 21.8001 7.73404 21.8125 7.76934 21.8393L9.74954 23.3017C9.78497 23.3276 9.80962 23.3659 9.81871 23.4091C9.8278 23.4523 9.82069 23.4974 9.79875 23.5357L9.44556 24.1704L10.1519 24.0241C10.1952 24.0156 10.24 24.0233 10.2779 24.046C10.3158 24.0686 10.3441 24.1046 10.3575 24.147L11.1131 26.4868C11.127 26.5288 11.1249 26.5745 11.1072 26.6151C11.0895 26.6556 11.0576 26.6881 11.0175 26.7061L10.3633 26.9986L11.0175 27.2911C11.0576 27.3091 11.0895 27.3416 11.1072 27.3822C11.1249 27.4227 11.127 27.4684 11.1131 27.5105L10.3575 29.8649C10.3435 29.9067 10.315 29.942 10.2771 29.9641C10.2393 29.9862 10.1948 29.9935 10.1519 29.9848L9.44556 29.8415L9.79875 30.4733C9.82069 30.5115 9.8278 30.5566 9.81871 30.5998C9.80962 30.643 9.78497 30.6813 9.74954 30.7072L7.76934 32.1696C7.73358 32.1952 7.68993 32.2069 7.64634 32.2026C7.60275 32.1983 7.56215 32.1783 7.53195 32.1462L7.04558 31.6081L6.96164 32.3334C6.95869 32.3787 6.93879 32.4211 6.90598 32.4521C6.87318 32.483 6.82993 32.5002 6.78503 32.5001ZM4.48929 32.1462H6.62002L6.71556 31.3127C6.71937 31.2782 6.73322 31.2455 6.75538 31.219C6.77754 31.1924 6.80701 31.1731 6.84004 31.1635L6.92979 31.1284C6.96253 31.1172 6.99781 31.1159 7.03126 31.1247C7.06471 31.1336 7.09486 31.1521 7.11796 31.1781L7.68249 31.7982L9.40503 30.5318L8.99972 29.8064C8.98114 29.7772 8.97126 29.7432 8.97126 29.7084C8.97126 29.6737 8.98114 29.6397 8.99972 29.6104L9.02289 29.5783L9.05763 29.5344C9.07699 29.5056 9.1044 29.4833 9.13636 29.4702C9.16832 29.4572 9.20339 29.4541 9.23711 29.4613L10.0564 29.6309L10.7136 27.5836L9.95508 27.2355C9.92386 27.2206 9.89749 27.1969 9.87904 27.1674C9.86059 27.1379 9.85081 27.1037 9.85086 27.0688L10.0332 27.022L9.85375 27.0074C9.85079 26.968 9.85869 26.9286 9.87658 26.8935C9.89446 26.8584 9.92164 26.8289 9.95508 26.8085L10.7136 26.4575L10.0564 24.4102L9.23711 24.5769C9.20369 24.5836 9.16906 24.5806 9.13727 24.5682C9.10549 24.5557 9.07786 24.5344 9.05763 24.5067L9.02289 24.4599L8.99972 24.4307C8.98148 24.4013 8.9718 24.3673 8.9718 24.3327C8.9718 24.298 8.98148 24.2641 8.99972 24.2347L9.41082 23.4977L7.68828 22.2341L7.12376 22.8542C7.10023 22.8796 7.07008 22.8977 7.03678 22.9065C7.00348 22.9153 6.9684 22.9144 6.93558 22.9039L6.84584 22.8688C6.81258 22.8587 6.78302 22.8388 6.76088 22.8118C6.73874 22.7847 6.72498 22.7517 6.72134 22.7167L6.62581 21.8861H4.48929L4.39665 22.7167C4.39279 22.752 4.37862 22.7853 4.35593 22.8124C4.33323 22.8395 4.30306 22.8591 4.26926 22.8688L4.17952 22.9039C4.14671 22.9144 4.11162 22.9153 4.07832 22.9065C4.04503 22.8977 4.01487 22.8796 3.99134 22.8542L3.42971 22.2341L1.6927 23.4977L2.1038 24.2347C2.12272 24.2638 2.13281 24.2979 2.13281 24.3327C2.13281 24.3675 2.12272 24.4016 2.1038 24.4307L2.08063 24.4599L2.04879 24.5067C2.02809 24.5347 1.99996 24.5561 1.96767 24.5685C1.93538 24.581 1.90026 24.5839 1.8664 24.5769L1.05001 24.4102L0.389942 26.4575L1.14843 26.8085C1.18481 26.8264 1.21441 26.8558 1.2327 26.8922C1.251 26.9286 1.25699 26.9701 1.24976 27.0103V27.0717C1.24961 27.1062 1.23972 27.14 1.22126 27.169C1.2028 27.198 1.17654 27.2211 1.14555 27.2355L0.387044 27.5836L1.04711 29.6309L1.8635 29.4613C1.89765 29.4543 1.93308 29.4574 1.96547 29.4704C1.99785 29.4834 2.0258 29.5056 2.04589 29.5344L2.07774 29.5783L2.1009 29.6104C2.11983 29.6395 2.12991 29.6736 2.12991 29.7084C2.12991 29.7432 2.11983 29.7773 2.1009 29.8064L1.6898 30.5405L3.42681 31.807L3.98845 31.1869C4.01177 31.1612 4.04192 31.1429 4.07529 31.1341C4.10867 31.1252 4.14385 31.1263 4.17663 31.1372L4.26926 31.1723C4.30211 31.1822 4.33137 31.2017 4.35348 31.2281C4.37558 31.2546 4.38958 31.2871 4.39376 31.3214L4.48929 32.1462ZM5.55465 28.967C5.1716 28.967 4.79714 28.8522 4.47864 28.6372C4.16014 28.4222 3.9119 28.1166 3.76531 27.7591C3.61872 27.4016 3.58038 27.0081 3.65511 26.6286C3.72984 26.249 3.91429 25.9004 4.18516 25.6267C4.45602 25.3531 4.80111 25.1667 5.17681 25.0912C5.55251 25.0157 5.94192 25.0545 6.29582 25.2026C6.64972 25.3507 6.9522 25.6015 7.16501 25.9232C7.37783 26.245 7.49142 26.6233 7.49142 27.0103C7.48913 27.527 7.28496 28.0219 6.92333 28.3872C6.56169 28.7526 6.07187 28.9588 5.56045 28.9611L5.55465 28.967ZM5.55465 25.4134C5.24202 25.4134 4.93641 25.507 4.67647 25.6825C4.41653 25.858 4.21394 26.1074 4.0943 26.3992C3.97466 26.691 3.94336 27.0121 4.00435 27.3219C4.06534 27.6316 4.21588 27.9162 4.43694 28.1395C4.658 28.3629 4.93966 28.5149 5.24628 28.5766C5.5529 28.6382 5.87072 28.6066 6.15955 28.4857C6.44838 28.3648 6.69525 28.1601 6.86894 27.8975C7.04263 27.6349 7.13534 27.3262 7.13534 27.0103C7.13306 26.589 6.9664 26.1857 6.67154 25.8878C6.37669 25.5899 5.97743 25.4215 5.56045 25.4192L5.55465 25.4134Z" fill="#8A9C1E"/>
<path d="M24.8732 18.6307H20.7767C20.7334 18.6304 20.6916 18.6142 20.6591 18.5852C20.6267 18.5561 20.6057 18.5162 20.6001 18.4728L20.4351 17.0104L19.4421 18.1072C19.4119 18.1392 19.3713 18.1592 19.3277 18.1635C19.2841 18.1678 19.2405 18.1561 19.2047 18.1306L15.8928 15.6972C15.8569 15.6717 15.8317 15.6336 15.822 15.5903C15.8124 15.5471 15.8191 15.5018 15.8407 15.4632L16.5645 14.1734L15.1169 14.4658C15.0737 14.4744 15.0289 14.4666 14.991 14.444C14.9531 14.4213 14.9248 14.3854 14.9114 14.343L13.6463 10.4092C13.6324 10.3671 13.6345 10.3214 13.6522 10.2809C13.6698 10.2403 13.7018 10.2079 13.7418 10.1898L15.0764 9.57268L13.7418 8.95847C13.7018 8.94041 13.6698 8.90796 13.6522 8.86741C13.6345 8.82687 13.6324 8.78113 13.6463 8.73911L14.9114 4.79066C14.9253 4.74882 14.9539 4.71355 14.9918 4.69148C15.0296 4.6694 15.0741 4.66203 15.1169 4.67074L16.5645 4.96322L15.8407 3.67047C15.8197 3.63175 15.8134 3.58661 15.823 3.54353C15.8326 3.50045 15.8574 3.46239 15.8928 3.43648L19.2047 1.00599C19.2405 0.980447 19.2841 0.968758 19.3277 0.973054C19.3713 0.977351 19.4119 0.997341 19.4421 1.02938L20.4351 2.12326L20.6001 0.660868C20.605 0.616905 20.6257 0.576283 20.6583 0.546655C20.6908 0.517026 20.7329 0.500431 20.7767 0.5H24.8732C24.9169 0.500431 24.9591 0.517026 24.9916 0.546655C25.0241 0.576283 25.0448 0.616905 25.0497 0.660868L25.2177 2.12326L26.2107 1.02938C26.24 0.997004 26.2802 0.97672 26.3235 0.972403C26.3667 0.968085 26.4101 0.980042 26.4451 1.00599L29.7599 3.43648C29.7949 3.46281 29.8191 3.50107 29.8282 3.54412C29.8372 3.58717 29.8305 3.63208 29.8092 3.67047L29.0854 4.96322L30.5329 4.67074C30.5754 4.66215 30.6195 4.66963 30.6568 4.69173C30.6942 4.71384 30.7222 4.74905 30.7356 4.79066L31.992 8.72741C32.005 8.76981 32.0022 8.81556 31.984 8.85599C31.9659 8.89641 31.9337 8.92871 31.8936 8.94677L30.559 9.56098L31.8936 10.1781C31.9337 10.1962 31.9659 10.2285 31.984 10.2689C32.0022 10.3093 32.005 10.3551 31.992 10.3975L30.724 14.3313C30.7112 14.3734 30.6834 14.4093 30.646 14.432C30.6086 14.4547 30.5642 14.4626 30.5213 14.4541L29.0738 14.1617L29.7976 15.4515C29.8189 15.4899 29.8256 15.5348 29.8166 15.5778C29.8075 15.6209 29.7833 15.6591 29.7484 15.6855L26.4451 18.1072C26.4123 18.1387 26.3688 18.1562 26.3236 18.1562C26.2783 18.1562 26.2348 18.1387 26.202 18.1072L25.209 17.0133L25.0411 18.4757C25.0356 18.5174 25.0158 18.5558 24.9851 18.5842C24.9544 18.6125 24.9147 18.629 24.8732 18.6307ZM20.9359 18.271H24.7139L24.8847 16.7706C24.8882 16.7359 24.9019 16.7031 24.9241 16.6765C24.9463 16.6499 24.976 16.6307 25.0092 16.6214L25.0845 16.5922L25.1598 16.5629C25.193 16.5518 25.2286 16.5506 25.2625 16.5594C25.2964 16.5682 25.3271 16.5867 25.3508 16.6126L26.3641 17.7299L29.4212 15.4749L28.6801 14.15C28.6619 14.1206 28.6522 14.0866 28.6522 14.052C28.6522 14.0173 28.6619 13.9833 28.6801 13.954L28.712 13.9131L28.7756 13.8282C28.7957 13.7995 28.8237 13.7772 28.8561 13.7643C28.8885 13.7513 28.9239 13.7481 28.958 13.7551L30.4287 14.0476L31.5867 10.4179L30.255 9.80958C30.224 9.79512 30.1977 9.77203 30.1793 9.74302C30.1608 9.71401 30.1509 9.68028 30.1508 9.6458C30.1493 9.6273 30.1493 9.60872 30.1508 9.59023V9.53465C30.1494 9.51616 30.1494 9.49758 30.1508 9.47908C30.1509 9.44459 30.1608 9.41086 30.1793 9.38185C30.1977 9.35284 30.224 9.32976 30.255 9.31529L31.6214 8.68647L30.4634 5.05681L28.9928 5.34929C28.9586 5.35669 28.9231 5.35369 28.8906 5.34068C28.8581 5.32766 28.8302 5.30522 28.8104 5.27617L28.7496 5.19428L28.7148 5.14748C28.6963 5.11825 28.6864 5.08424 28.6864 5.0495C28.6864 5.01476 28.6963 4.98075 28.7148 4.95152L29.456 3.62952L26.3988 1.38621L25.3856 2.50348C25.3614 2.52882 25.3307 2.54689 25.297 2.55567C25.2633 2.56444 25.2278 2.56359 25.1945 2.5532L25.1192 2.52102L25.0411 2.4947C25.0082 2.4844 24.979 2.46443 24.9574 2.43735C24.9357 2.41026 24.9225 2.37729 24.9195 2.34262L24.7487 0.845131H20.9359L20.768 2.34262C20.7637 2.37728 20.7497 2.40999 20.7276 2.43692C20.7056 2.46385 20.6764 2.48389 20.6435 2.4947L20.5683 2.52102L20.4901 2.5532C20.4573 2.5637 20.4222 2.5646 20.3889 2.5558C20.3556 2.547 20.3254 2.52886 20.3019 2.50348L19.2858 1.38621L16.2286 3.62952L16.9698 4.95152C16.9887 4.98062 16.9988 5.01468 16.9988 5.0495C16.9988 5.08432 16.9887 5.11838 16.9698 5.14748L16.8742 5.27617C16.8549 5.30497 16.8275 5.3273 16.7955 5.34032C16.7635 5.35334 16.7285 5.35647 16.6947 5.34929L15.2212 5.05681L14.0632 8.68647L15.4267 9.31529C15.4586 9.32848 15.4858 9.35127 15.5044 9.38058C15.523 9.40988 15.5323 9.44427 15.5309 9.47908V9.64287C15.5325 9.67809 15.5233 9.71294 15.5047 9.74275C15.4861 9.77255 15.4589 9.79588 15.4267 9.80958L14.0429 10.4384L15.2009 14.0681L16.6745 13.7756C16.7079 13.7681 16.7428 13.7708 16.7747 13.7833C16.8066 13.7958 16.8342 13.8175 16.854 13.8458L16.9495 13.9745C16.9684 14.0036 16.9785 14.0376 16.9785 14.0724C16.9785 14.1073 16.9684 14.1413 16.9495 14.1704L16.2286 15.4749L19.2858 17.7182L20.3019 16.6009C20.325 16.5749 20.3552 16.5564 20.3886 16.5475C20.4221 16.5387 20.4574 16.54 20.4901 16.5512L20.5654 16.5805L20.6435 16.6097C20.6764 16.6197 20.7056 16.6391 20.7277 16.6656C20.7499 16.6921 20.7639 16.7245 20.768 16.7589L20.9359 18.271ZM22.8264 13.8487C21.987 13.8487 21.1664 13.5972 20.4685 13.1261C19.7705 12.6549 19.2266 11.9853 18.9053 11.2018C18.5841 10.4183 18.5001 9.55622 18.6638 8.72448C18.8276 7.89275 19.2318 7.12874 19.8253 6.52909C20.4189 5.92944 21.1751 5.52108 21.9984 5.35564C22.8217 5.1902 23.675 5.2751 24.4505 5.59963C25.226 5.92416 25.8889 6.47373 26.3552 7.17884C26.8216 7.88396 27.0705 8.71294 27.0705 9.56098C27.0689 10.6977 26.6213 11.7874 25.8257 12.5912C25.0301 13.3949 23.9515 13.8472 22.8264 13.8487ZM22.8264 5.63591C22.0572 5.63534 21.3051 5.8653 20.6652 6.29669C20.0254 6.72808 19.5266 7.34151 19.232 8.05937C18.9374 8.77724 18.8601 9.56727 19.01 10.3295C19.16 11.0917 19.5303 11.7919 20.0742 12.3414C20.6182 12.8909 21.3112 13.2651 22.0657 13.4165C22.8202 13.568 23.6021 13.49 24.3127 13.1923C25.0233 12.8947 25.6304 12.3907 26.0574 11.7443C26.4844 11.0979 26.7121 10.3381 26.7115 9.56098C26.71 8.52046 26.3001 7.52301 25.5719 6.78725C24.8436 6.0515 23.8563 5.63746 22.8264 5.63591Z" fill="#8A9C1E"/>
<path d="M1.51606 23.5592C1.47793 23.5595 1.44094 23.546 1.41183 23.5212C1.39285 23.5073 1.3768 23.4897 1.36462 23.4695C1.35243 23.4493 1.34435 23.4268 1.34085 23.4034C1.33735 23.38 1.33849 23.3561 1.34422 23.3331C1.34994 23.3102 1.36013 23.2886 1.37419 23.2696L2.64511 21.5352C2.67417 21.4994 2.71573 21.4761 2.76125 21.4702C2.80676 21.4643 2.85278 21.4763 2.88984 21.5036C2.9269 21.531 2.95219 21.5716 2.96052 21.6172C2.96884 21.6628 2.95958 21.7099 2.93461 21.7488L1.6637 23.4861C1.64647 23.5091 1.62414 23.5277 1.59849 23.5404C1.57285 23.5531 1.54461 23.5595 1.51606 23.5592Z" fill="#8A9C1E"/>
<path d="M3.24756 21.1928C3.20914 21.1924 3.17177 21.1801 3.14044 21.1577C3.12169 21.1435 3.1059 21.1258 3.09398 21.1055C3.08207 21.0851 3.07426 21.0626 3.07103 21.0392C3.0678 21.0158 3.0692 20.992 3.07516 20.9692C3.08111 20.9463 3.09149 20.9249 3.10571 20.9061L3.79472 19.9673C3.80847 19.9481 3.82587 19.9319 3.84588 19.9196C3.8659 19.9073 3.88814 19.8991 3.91132 19.8956C3.93449 19.892 3.95813 19.8932 3.98086 19.899C4.00358 19.9047 4.02494 19.915 4.04369 19.9293C4.08138 19.9578 4.10645 20.0002 4.11349 20.0472C4.12053 20.0943 4.10898 20.1423 4.08133 20.1808L3.39231 21.1226C3.37508 21.1446 3.35308 21.1624 3.32799 21.1746C3.3029 21.1868 3.27539 21.193 3.24756 21.1928Z" fill="#8A9C1E"/>
<path d="M4.62543 19.3122C4.58791 19.3118 4.55146 19.2995 4.52121 19.2771C4.50223 19.2632 4.48618 19.2456 4.47399 19.2254C4.46181 19.2052 4.45373 19.1827 4.45023 19.1593C4.44672 19.1359 4.44787 19.112 4.45359 19.089C4.45932 19.0661 4.46951 19.0445 4.48358 19.0256L7.23963 15.2613C7.26869 15.2255 7.31025 15.2022 7.35577 15.1963C7.40128 15.1905 7.4473 15.2024 7.48436 15.2297C7.52142 15.2571 7.54672 15.2977 7.55505 15.3433C7.56337 15.3889 7.5541 15.436 7.52913 15.4749L4.77887 19.2391C4.76107 19.2629 4.7378 19.282 4.71108 19.2947C4.68435 19.3075 4.65496 19.3135 4.62543 19.3122ZM7.84469 14.925C7.80621 14.925 7.76872 14.9127 7.73758 14.8899C7.69989 14.8614 7.67482 14.819 7.66778 14.7719C7.66074 14.7249 7.67229 14.6769 7.69994 14.6384L8.38895 13.6966C8.41766 13.6591 8.45954 13.6343 8.5059 13.6272C8.55226 13.6201 8.59954 13.6314 8.63792 13.6586C8.65699 13.6727 8.67311 13.6906 8.68533 13.711C8.69755 13.7315 8.70565 13.7542 8.70915 13.7779C8.71265 13.8015 8.71148 13.8257 8.70571 13.8488C8.69995 13.872 8.6897 13.8939 8.67556 13.913L7.98654 14.8519C7.96977 14.8735 7.94819 14.8909 7.92355 14.9026C7.89891 14.9143 7.8719 14.92 7.84469 14.9192V14.925ZM9.22272 13.0444C9.18889 13.0449 9.15559 13.0358 9.12667 13.0181C9.09774 13.0004 9.07436 12.9747 9.05923 12.9442C9.0441 12.9136 9.03783 12.8793 9.04115 12.8453C9.04446 12.8113 9.05723 12.7789 9.07797 12.7519L11.8369 8.9877C11.851 8.96849 11.8687 8.95228 11.8889 8.93997C11.9092 8.92767 11.9317 8.91952 11.9551 8.91599C11.9784 8.91246 12.0023 8.91361 12.0252 8.91939C12.0482 8.92517 12.0698 8.93546 12.0888 8.94967C12.1078 8.96389 12.1238 8.98174 12.136 9.00222C12.1482 9.0227 12.1563 9.0454 12.1598 9.06903C12.1633 9.09266 12.1621 9.11675 12.1564 9.13993C12.1507 9.16311 12.1405 9.18492 12.1264 9.20413L9.36747 12.9683C9.35055 12.9907 9.32861 13.0088 9.30345 13.021C9.27828 13.0332 9.25062 13.0392 9.22272 13.0385V13.0444ZM12.4391 8.6572C12.4006 8.6572 12.3631 8.64492 12.332 8.6221C12.2943 8.59355 12.2692 8.55118 12.2622 8.50412C12.2551 8.45706 12.2667 8.40909 12.2943 8.37056L12.9862 7.42878C13.0153 7.39291 13.0569 7.36965 13.1024 7.36377C13.1479 7.35789 13.1939 7.36985 13.231 7.39718C13.268 7.42451 13.2933 7.46514 13.3017 7.51073C13.31 7.55632 13.3007 7.6034 13.2757 7.6423L12.5954 8.57238C12.5772 8.59644 12.5534 8.61567 12.5262 8.62841C12.4989 8.64115 12.4691 8.64701 12.4391 8.64549V8.6572Z" fill="#8A9C1E"/>
<path d="M13.8168 6.7619C13.7793 6.7615 13.7429 6.74922 13.7126 6.72681C13.6936 6.71291 13.6776 6.69534 13.6654 6.67512C13.6532 6.65489 13.6451 6.63242 13.6416 6.60901C13.6381 6.58559 13.6393 6.56172 13.645 6.53876C13.6507 6.5158 13.6609 6.49422 13.675 6.47528L14.9459 4.74088C14.9592 4.72019 14.9765 4.70246 14.9968 4.68876C15.0171 4.67506 15.0399 4.66569 15.0639 4.66122C15.0879 4.65674 15.1126 4.65725 15.1364 4.66273C15.1602 4.66821 15.1826 4.67853 15.2023 4.69307C15.222 4.70761 15.2386 4.72606 15.251 4.74729C15.2634 4.76852 15.2714 4.79208 15.2745 4.81654C15.2776 4.841 15.2758 4.86584 15.269 4.88954C15.2623 4.91325 15.2509 4.93531 15.2354 4.95439L13.9616 6.70048C13.9436 6.72113 13.9213 6.73739 13.8962 6.74803C13.8711 6.75867 13.844 6.76341 13.8168 6.7619Z" fill="#8A9C1E"/>
<path d="M8.92748 31.283C8.90002 31.2835 8.87286 31.2774 8.8482 31.2652C8.82354 31.253 8.80209 31.235 8.78562 31.2128C8.77133 31.1938 8.76089 31.1722 8.75489 31.1491C8.7489 31.126 8.74748 31.102 8.75071 31.0783C8.75393 31.0547 8.76175 31.0319 8.7737 31.0114C8.78566 30.9908 8.80151 30.9728 8.82036 30.9584L10.5342 29.6686C10.5728 29.6405 10.6207 29.6287 10.6678 29.6358C10.7149 29.6429 10.7573 29.6683 10.7861 29.7066C10.8137 29.7451 10.8253 29.7931 10.8182 29.8401C10.8112 29.8872 10.7861 29.9296 10.7484 29.9581L9.0346 31.2479C9.00345 31.2708 8.96595 31.283 8.92748 31.283Z" fill="#8A9C1E"/>
<path d="M11.2666 29.5135C11.2392 29.5139 11.212 29.5078 11.1873 29.4956C11.1627 29.4834 11.1412 29.4655 11.1248 29.4433C11.1105 29.4245 11.1001 29.4031 11.0942 29.3802C11.0882 29.3574 11.0868 29.3336 11.0901 29.3102C11.0933 29.2868 11.1011 29.2642 11.113 29.2439C11.1249 29.2236 11.1407 29.2058 11.1595 29.1917L12.0975 28.4839C12.1162 28.4697 12.1376 28.4594 12.1603 28.4536C12.183 28.4479 12.2067 28.4467 12.2298 28.4502C12.253 28.4538 12.2753 28.4619 12.2953 28.4743C12.3153 28.4866 12.3327 28.5028 12.3464 28.522C12.3744 28.5601 12.3864 28.6079 12.3799 28.6549C12.3734 28.7019 12.3489 28.7445 12.3117 28.7735L11.3737 29.4784C11.3426 29.5012 11.3051 29.5135 11.2666 29.5135Z" fill="#8A9C1E"/>
<path d="M13.1425 28.1124C13.1144 28.1123 13.0867 28.1056 13.0616 28.0929C13.0365 28.0802 13.0147 28.0619 12.9977 28.0393C12.9837 28.0203 12.9735 27.9987 12.9678 27.9758C12.962 27.9528 12.9609 27.9289 12.9644 27.9055C12.9679 27.8821 12.976 27.8596 12.9882 27.8394C13.0003 27.8192 13.0164 27.8016 13.0354 27.7877L16.7989 24.9653C16.8178 24.9497 16.8396 24.9381 16.8631 24.9313C16.8865 24.9245 16.9111 24.9226 16.9353 24.9258C16.9595 24.9289 16.9829 24.937 17.0039 24.9495C17.0249 24.9621 17.0432 24.9788 17.0575 24.9987C17.0719 25.0186 17.0822 25.0413 17.0876 25.0653C17.093 25.0894 17.0935 25.1143 17.0891 25.1385C17.0847 25.1628 17.0754 25.1859 17.0618 25.2064C17.0483 25.2269 17.0307 25.2444 17.0102 25.2578L13.2612 28.0802C13.2266 28.1047 13.1846 28.1161 13.1425 28.1124ZM17.5169 24.8337C17.4892 24.8338 17.4618 24.8272 17.4371 24.8145C17.4125 24.8018 17.3912 24.7833 17.375 24.7606C17.3609 24.7416 17.3507 24.7201 17.345 24.6971C17.3393 24.6741 17.3381 24.6503 17.3417 24.6268C17.3452 24.6034 17.3532 24.581 17.3654 24.5607C17.3776 24.5405 17.3937 24.5229 17.4126 24.5091L18.3477 23.8042C18.3667 23.79 18.3883 23.7797 18.4113 23.7739C18.4342 23.7681 18.4581 23.767 18.4815 23.7705C18.5048 23.774 18.5273 23.7822 18.5476 23.7945C18.5679 23.8068 18.5855 23.823 18.5996 23.8422C18.6137 23.8614 18.6238 23.8832 18.6296 23.9064C18.6353 23.9296 18.6364 23.9537 18.6329 23.9773C18.6294 24.0009 18.6214 24.0236 18.6092 24.0441C18.597 24.0646 18.581 24.0824 18.562 24.0967L17.624 24.8015C17.5925 24.8233 17.555 24.8346 17.5169 24.8337ZM19.3928 23.424C19.3648 23.4236 19.3372 23.4169 19.3121 23.4042C19.2871 23.3915 19.2652 23.3733 19.2481 23.3508C19.2204 23.3123 19.2089 23.2643 19.2159 23.2173C19.223 23.1702 19.248 23.1279 19.2857 23.0993L23.0348 20.2769C23.0535 20.2627 23.0749 20.2524 23.0976 20.2466C23.1203 20.2408 23.144 20.2397 23.1671 20.2432C23.1903 20.2467 23.2125 20.2549 23.2326 20.2672C23.2526 20.2795 23.27 20.2957 23.2837 20.3149C23.3117 20.3531 23.3237 20.4008 23.3172 20.4478C23.3107 20.4949 23.2862 20.5375 23.249 20.5664L19.4855 23.3889C19.4561 23.4043 19.423 23.4114 19.3899 23.4093L19.3928 23.424ZM23.7672 20.1307C23.739 20.1313 23.7111 20.1249 23.6859 20.1122C23.6607 20.0994 23.6389 20.0807 23.6224 20.0575C23.5948 20.019 23.5833 19.971 23.5903 19.924C23.5973 19.8769 23.6224 19.8345 23.6601 19.806L24.5981 19.1011C24.6168 19.0869 24.6382 19.0766 24.6609 19.0708C24.6836 19.0651 24.7073 19.0639 24.7304 19.0674C24.7536 19.071 24.7759 19.0791 24.7959 19.0915C24.8159 19.1038 24.8333 19.12 24.847 19.1391C24.8747 19.1777 24.8862 19.2256 24.8792 19.2727C24.8722 19.3198 24.8471 19.3621 24.8094 19.3907L23.8714 20.0955C23.8387 20.1134 23.8012 20.1206 23.7643 20.116L23.7672 20.1307Z" fill="#8A9C1E"/>
<path d="M25.6376 18.7068C25.6004 18.7062 25.5643 18.694 25.5343 18.6718C25.5043 18.6496 25.4819 18.6185 25.4702 18.5828C25.4584 18.5472 25.4579 18.5087 25.4687 18.4728C25.4795 18.4368 25.5011 18.4052 25.5305 18.3822L27.2443 17.0923C27.2633 17.0781 27.2849 17.0678 27.3079 17.062C27.3308 17.0563 27.3547 17.0551 27.3781 17.0586C27.4015 17.0622 27.4239 17.0703 27.4442 17.0826C27.4645 17.0949 27.4821 17.1111 27.4962 17.1303C27.5103 17.1496 27.5205 17.1714 27.5262 17.1946C27.5319 17.2177 27.533 17.2418 27.5295 17.2654C27.5261 17.2891 27.518 17.3118 27.5058 17.3323C27.4936 17.3527 27.4776 17.3706 27.4586 17.3848L25.7447 18.6776C25.7129 18.6983 25.6754 18.7085 25.6376 18.7068Z" fill="#8A9C1E"/>
</svg>
