<svg width="32" height="33" viewBox="0 0 32 33" fill="none" xmlns="http://www.w3.org/2000/svg">
<path d="M16.0035 32.5C12.8388 32.5007 9.74502 31.5629 7.11338 29.8052C4.48174 28.0475 2.43046 25.5489 1.21893 22.6253C0.0073983 19.7018 -0.309954 16.4846 0.307022 13.3807C0.923997 10.2767 2.44758 7.4255 4.68508 5.18752C6.92259 2.94953 9.77351 1.42534 12.8773 0.807694C15.9811 0.190052 19.1983 0.506706 22.1221 1.71761C25.046 2.92851 27.545 4.97926 29.3033 7.61052C31.0615 10.2418 32 13.3354 32 16.5C31.9955 20.7415 30.3088 24.808 27.3099 27.8075C24.311 30.807 20.2449 32.4945 16.0035 32.5ZM16.0035 1.00527C12.9381 1.00527 9.94151 1.91431 7.39277 3.61742C4.84404 5.32054 2.8576 7.74123 1.68468 10.5733C0.511758 13.4055 0.205038 16.5218 0.803316 19.5283C1.4016 22.5347 2.87799 25.2962 5.04579 27.4635C7.21359 29.6308 9.97542 31.1066 12.982 31.7042C15.9886 32.3018 19.1048 31.9944 21.9367 30.8209C24.7686 29.6474 27.1888 27.6604 28.8914 25.1113C30.5939 22.5622 31.5023 19.5654 31.5016 16.5C31.4934 12.3937 29.8574 8.45824 26.9522 5.55627C24.047 2.6543 20.1097 1.02265 16.0035 1.01902V1.00527Z" fill="#8A9C1E"/>
<path d="M16.0033 28.2038C13.6919 28.2038 11.4325 27.5184 9.51067 26.2343C7.58886 24.9502 6.09099 23.125 5.20648 20.9896C4.32196 18.8542 4.09053 16.5045 4.54145 14.2375C4.99237 11.9706 6.1054 9.88828 7.73977 8.25392C9.37413 6.61955 11.4564 5.50653 13.7234 5.05561C15.9903 4.60469 18.34 4.83612 20.4754 5.72064C22.6108 6.60515 24.436 8.10302 25.7201 10.0248C27.0042 11.9466 27.6896 14.2061 27.6896 16.5174C27.6896 19.6168 26.4584 22.5893 24.2668 24.7809C22.0751 26.9725 19.1027 28.2038 16.0033 28.2038ZM16.0033 5.32945C13.7904 5.32945 11.6271 5.9857 9.78721 7.21521C7.94729 8.44471 6.51329 10.1922 5.6666 12.2368C4.81991 14.2813 4.59856 16.531 5.03053 18.7014C5.4625 20.8717 6.52838 22.8652 8.09339 24.4297C9.6584 25.9942 11.6522 27.0595 13.8227 27.4908C15.9932 27.9221 18.2428 27.7001 20.2871 26.8528C22.3314 26.0054 24.0784 24.5709 25.3074 22.7306C26.5363 20.8903 27.1919 18.7269 27.1912 16.514C27.183 13.5512 26.001 10.7123 23.9041 8.61923C21.8071 6.52613 18.9661 5.34935 16.0033 5.34664V5.32945Z" fill="#8A9C1E"/>
<path d="M16.0035 18.4484C15.6208 18.4484 15.2466 18.3349 14.9284 18.1222C14.6102 17.9096 14.3621 17.6074 14.2157 17.2538C14.0692 16.9002 14.0309 16.5111 14.1055 16.1357C14.1802 15.7603 14.3645 15.4156 14.6352 15.1449C14.9058 14.8743 15.2506 14.69 15.626 14.6153C16.0013 14.5406 16.3904 14.579 16.744 14.7254C17.0976 14.8719 17.3998 15.1199 17.6125 15.4382C17.8251 15.7564 17.9386 16.1305 17.9386 16.5132C17.9377 17.0262 17.7335 17.5179 17.3708 17.8806C17.0081 18.2433 16.5164 18.4475 16.0035 18.4484ZM16.0035 15.08C15.72 15.08 15.4429 15.164 15.2072 15.3215C14.9715 15.479 14.7878 15.7028 14.6793 15.9647C14.5708 16.2266 14.5424 16.5148 14.5977 16.7929C14.653 17.0709 14.7895 17.3263 14.99 17.5267C15.1904 17.7272 15.4458 17.8637 15.7239 17.919C16.0019 17.9743 16.2901 17.9459 16.552 17.8375C16.8139 17.729 17.0377 17.5453 17.1952 17.3096C17.3527 17.0738 17.4368 16.7967 17.4368 16.5132C17.4368 16.1331 17.2858 15.7685 17.017 15.4998C16.7482 15.231 16.3836 15.08 16.0035 15.08Z" fill="#8A9C1E"/>
<path d="M16.0034 15.0802C15.9368 15.0802 15.873 15.0538 15.8259 15.0067C15.7789 14.9597 15.7524 14.8958 15.7524 14.8293V5.07807C15.7524 5.01152 15.7789 4.9477 15.8259 4.90065C15.873 4.85359 15.9368 4.82715 16.0034 4.82715C16.0699 4.82715 16.1337 4.85359 16.1808 4.90065C16.2278 4.9477 16.2543 5.01152 16.2543 5.07807V14.8293C16.2543 14.8958 16.2278 14.9597 16.1808 15.0067C16.1337 15.0538 16.0699 15.0802 16.0034 15.0802Z" fill="#8A9C1E"/>
<path d="M14.4019 16.2452C14.3769 16.2501 14.3512 16.2501 14.3263 16.2452L5.04594 13.2308C5.01147 13.2236 4.97891 13.2091 4.95038 13.1885C4.92185 13.1678 4.89798 13.1414 4.88035 13.1109C4.86272 13.0804 4.85172 13.0465 4.84805 13.0115C4.84437 12.9764 4.84812 12.941 4.85904 12.9075C4.86996 12.874 4.88782 12.8432 4.91145 12.8171C4.93507 12.7909 4.96392 12.7701 4.99614 12.7558C5.02836 12.7416 5.06322 12.7343 5.09845 12.7344C5.13368 12.7345 5.16849 12.742 5.20062 12.7565L14.481 15.7675C14.5355 15.7884 14.5811 15.8274 14.6102 15.878C14.6393 15.9286 14.6502 15.9877 14.6409 16.0453C14.6317 16.1029 14.6028 16.1556 14.5593 16.1945C14.5158 16.2334 14.4602 16.2562 14.4019 16.259V16.2452Z" fill="#8A9C1E"/>
<path d="M9.28028 26.0176C9.22814 26.0182 9.17731 26.0012 9.1359 25.9695C9.08351 25.931 9.04814 25.8736 9.03724 25.8095C9.02634 25.7454 9.04077 25.6795 9.07748 25.6258L14.8107 17.7203C14.8499 17.6665 14.9088 17.6305 14.9746 17.6202C15.0403 17.6099 15.1075 17.6261 15.1613 17.6653C15.215 17.7045 15.2511 17.7635 15.2614 17.8292C15.2717 17.895 15.2554 17.9621 15.2162 18.0159L9.48306 25.9042C9.46135 25.9385 9.43145 25.9668 9.39604 25.9866C9.36063 26.0064 9.32085 26.0171 9.28028 26.0176Z" fill="#8A9C1E"/>
<path d="M22.7268 26.0171C22.6872 26.0174 22.6481 26.0082 22.6128 25.9902C22.5775 25.9723 22.5471 25.9462 22.524 25.914L16.7908 18.0257C16.7545 17.9722 16.74 17.9068 16.7503 17.843C16.7605 17.7791 16.7946 17.7216 16.8458 17.682C16.8988 17.6441 16.9646 17.6286 17.0289 17.6389C17.0933 17.6491 17.151 17.6844 17.1895 17.737L22.9227 25.6425C22.9598 25.6957 22.9747 25.7613 22.9645 25.8254C22.9542 25.8895 22.9195 25.9471 22.8677 25.9862C22.8251 26.0109 22.7758 26.0217 22.7268 26.0171Z" fill="#8A9C1E"/>
<path d="M17.6051 16.2453C17.5444 16.2464 17.4853 16.2255 17.4389 16.1863C17.3925 16.1472 17.3618 16.0926 17.3525 16.0326C17.3433 15.9726 17.3561 15.9112 17.3887 15.86C17.4212 15.8087 17.4712 15.771 17.5295 15.7538L26.8098 12.7428C26.8419 12.7284 26.8767 12.7208 26.912 12.7207C26.9472 12.7206 26.9821 12.7279 27.0143 12.7421C27.0465 12.7564 27.0754 12.7772 27.099 12.8034C27.1226 12.8295 27.1405 12.8603 27.1514 12.8938C27.1623 12.9273 27.166 12.9627 27.1624 12.9978C27.1587 13.0328 27.1477 13.0667 27.1301 13.0972C27.1124 13.1277 27.0886 13.1541 27.0601 13.1748C27.0315 13.1955 26.999 13.2099 26.9645 13.2172L17.6841 16.2316C17.6589 16.2411 17.6321 16.2458 17.6051 16.2453Z" fill="#8A9C1E"/>
<path d="M16.0033 19.116C15.4887 19.116 14.9856 18.9634 14.5577 18.6775C14.1299 18.3916 13.7964 17.9852 13.5994 17.5098C13.4025 17.0343 13.351 16.5111 13.4514 16.0064C13.5518 15.5017 13.7996 15.0381 14.1634 14.6742C14.5273 14.3103 14.991 14.0625 15.4957 13.9621C16.0004 13.8617 16.5236 13.9132 16.999 14.1102C17.4745 14.3071 17.8808 14.6406 18.1667 15.0685C18.4526 15.4964 18.6052 15.9994 18.6052 16.514C18.6043 17.2038 18.3299 17.8651 17.8421 18.3529C17.3544 18.8406 16.6931 19.1151 16.0033 19.116ZM16.0033 14.3383C15.5722 14.3383 15.1507 14.4662 14.7923 14.7058C14.4338 14.9454 14.1545 15.286 13.9897 15.6843C13.8249 16.0827 13.7819 16.5211 13.8663 16.9439C13.9506 17.3667 14.1585 17.755 14.4636 18.0596C14.7687 18.3642 15.1573 18.5715 15.5803 18.6552C16.0032 18.7389 16.4415 18.6952 16.8396 18.5298C17.2377 18.3643 17.5778 18.0845 17.8169 17.7257C18.0559 17.3668 18.1831 16.9452 18.1825 16.514C18.1815 15.9367 17.9516 15.3833 17.543 14.9754C17.1344 14.5674 16.5807 14.3383 16.0033 14.3383Z" fill="#8A9C1E"/>
</svg>
